<svg width="265" height="265" viewBox="0 0 265 265" fill="none" xmlns="http://www.w3.org/2000/svg">
<rect width="265" height="265" rx="64" fill="#2558DC"/>
<path d="M124.452 169.348C165.495 167.281 214.904 135.709 212.349 84.9462C209.793 34.1838 166.05 17.1533 116.913 19.6272C67.7773 22.1011 25.9659 43.4392 28.5217 94.2016C31.0775 144.964 83.4085 171.414 124.452 169.348Z" fill="black"/>
<path fill-rule="evenodd" clip-rule="evenodd" d="M68.5097 116.248C73.8581 127.401 87.207 133.618 97.5944 126.903L116.248 114.844C126.997 107.894 140.639 107.209 152.031 113.046L171.799 123.175C182.803 128.813 195.457 121.294 199.66 109.666C202.779 101.036 204.271 91.656 203.78 81.9172C203.234 71.07 195.229 62.324 184.857 59.1031C167.918 53.8431 149.783 51.4198 131.039 52.3636C112.293 53.3074 94.4931 57.5401 78.1682 64.4751C68.1722 68.7216 61.0864 78.2272 61.6325 89.0741C62.1224 98.8049 64.5449 107.981 68.5097 116.248Z" fill="white"/>
<path d="M115.202 129.506V129.506C128.283 133.99 142.588 133.269 155.152 127.495V127.495" stroke="white" stroke-width="5.68599" stroke-linecap="round"/>
<g filter="url(#filter0_d_562_15517)">
<path d="M144.518 190.834C141.633 191.837 136.893 189.555 137.871 185.577C138.045 184.856 138.427 184.201 138.97 183.696C138.985 183.68 139.002 183.664 139.02 183.651C139.601 183.163 140.279 182.803 141.008 182.593C141.737 182.383 142.502 182.328 143.254 182.432C143.647 182.473 144.036 182.556 144.412 182.678C145.327 182.949 146.127 183.513 146.69 184.283C146.795 184.438 146.895 184.599 146.986 184.784L147.076 184.975C147.136 185.105 147.196 185.236 147.246 185.366C147.297 185.497 147.302 185.492 147.322 185.557C147.994 187.629 147.106 189.941 144.518 190.834Z" fill="#2679B2"/>
<path d="M143.364 193.222C140.651 193.458 137.034 191.893 137.089 189.043C137.119 187.187 137.591 184.338 138.97 183.696C138.427 184.202 138.045 184.856 137.872 185.577C136.894 189.555 141.634 191.827 144.518 190.834C147.106 189.941 147.994 187.629 147.307 185.532C148.972 189.149 146.69 192.941 143.364 193.222Z" fill="#246896"/>
<path opacity="0.4" d="M141.674 184.047C142.005 183.229 143.475 183.194 144.302 183.851C144.804 184.237 145.451 185.476 144.558 185.767C143.911 185.978 143.48 185.11 142.963 184.895C142.587 184.734 141.553 184.849 141.629 184.222C141.637 184.162 141.652 184.103 141.674 184.047Z" fill="#EEFFFF"/>
<path opacity="0.4" d="M145.687 186.184C144.844 186.449 145.657 187.633 146.218 186.846C146.264 186.766 146.284 186.675 146.277 186.583C146.27 186.492 146.235 186.405 146.178 186.334C146.121 186.262 146.043 186.21 145.955 186.183C145.868 186.156 145.774 186.156 145.687 186.184Z" fill="#EEFFFF"/>
<path d="M147.367 185.697C147.527 185.941 147.623 186.22 147.648 186.51C147.78 187.182 147.726 187.878 147.49 188.522C147.255 189.166 146.848 189.733 146.313 190.162C145.802 190.552 145.211 190.826 144.583 190.964C143.154 191.287 141.661 191.157 140.309 190.593C139.601 190.301 138.979 189.835 138.498 189.239C138.034 188.693 137.712 188.042 137.56 187.343C137.428 186.709 137.463 186.052 137.661 185.436C137.823 184.905 138.098 184.416 138.468 184.002C139.011 183.406 139.704 182.966 140.475 182.728C140.734 182.606 141.012 182.528 141.297 182.497C141.048 182.637 140.786 182.753 140.515 182.843C139.815 183.13 139.192 183.579 138.699 184.152C138.377 184.554 138.143 185.019 138.012 185.517C137.844 186.079 137.82 186.674 137.942 187.247C138.107 187.901 138.423 188.508 138.863 189.019C139.304 189.53 139.857 189.931 140.48 190.192C141.749 190.716 143.147 190.849 144.493 190.573C145.072 190.456 145.619 190.217 146.098 189.871C146.512 189.559 146.854 189.162 147.101 188.707C147.444 188.032 147.583 187.272 147.502 186.52C147.442 186.008 147.332 185.712 147.367 185.697Z" fill="#085F82"/>
<path d="M174.082 193.648V193.678C174.193 196.437 150.311 210.467 148.029 209.263C147.999 209.263 147.974 209.263 147.949 209.218C143.324 206.665 132.143 191.822 131.687 188.371C131.679 188.276 131.679 188.18 131.687 188.085C131.717 187.852 131.792 187.627 131.907 187.423C134.19 182.903 153.592 170.699 155.904 170.96C158.663 171.271 173.626 189.284 174.082 193.648Z" fill="#DD5862"/>
<path d="M173.385 209.654C171.198 211.766 154.414 221.692 149.629 222.906C149.573 222.927 149.514 222.941 149.454 222.946C149.158 223.047 148.839 223.059 148.536 222.982C148.481 222.952 148.439 222.904 148.415 222.846C147.693 221.572 147.874 212.393 147.954 209.217C147.954 209.217 148.004 209.217 148.034 209.263C150.316 210.466 174.198 196.437 174.087 193.678C174.73 196.677 175.281 207.843 173.385 209.654Z" fill="#B5354B"/>
<path d="M148.415 222.846C143.655 221.466 132.901 208.881 132.364 205.29C130.398 191.676 131.2 188.235 131.862 187.438C131.747 187.642 131.672 187.867 131.642 188.1C131.634 188.195 131.634 188.29 131.642 188.386C132.143 191.822 143.324 206.664 147.954 209.217C147.874 212.392 147.693 221.572 148.415 222.846Z" fill="#C64252"/>
<path d="M148.229 209.625C148.229 209.625 148.129 209.625 147.964 209.535C147.714 209.425 147.477 209.289 147.256 209.128C146.451 208.549 145.691 207.908 144.984 207.212C142.658 204.929 140.488 202.492 138.488 199.919C136.448 197.387 134.603 194.704 132.971 191.893C132.68 191.331 132.414 190.835 132.203 190.388C131.992 189.942 131.842 189.53 131.702 189.199C131.574 188.855 131.501 188.493 131.486 188.126C131.688 188.435 131.84 188.773 131.937 189.129C132.093 189.435 132.283 189.811 132.509 190.248C132.735 190.684 133.011 191.156 133.347 191.692C135.085 194.402 136.969 197.016 138.99 199.522C141.332 202.532 143.595 205.095 145.305 206.891C146.158 207.794 146.885 208.476 147.407 208.933C147.928 209.389 148.255 209.585 148.229 209.625Z" fill="#B72645"/>
<path d="M148.586 223.052C148.415 223.087 147.738 220.042 147.618 216.19C147.498 212.337 147.683 209.268 147.844 209.268C148.004 209.268 148.125 212.368 148.255 216.165C148.385 219.962 148.762 223.017 148.586 223.052Z" fill="#B72645"/>
<path d="M148.044 209.634C148.402 209.447 148.771 209.279 149.147 209.132C149.85 208.811 150.868 208.325 152.112 207.708C154.62 206.464 158.006 204.698 161.678 202.556C164.827 200.782 167.863 198.811 170.767 196.657C171.637 196.004 172.465 195.295 173.245 194.536C173.516 194.26 173.716 194.034 173.847 193.884C173.977 193.733 174.067 193.658 174.087 193.668C174.107 193.678 174.057 193.778 173.952 193.959C173.806 194.22 173.638 194.468 173.45 194.701C172.732 195.549 171.936 196.328 171.073 197.029C168.235 199.306 165.216 201.346 162.044 203.128C158.352 205.26 154.896 206.991 152.348 208.144C151.074 208.716 150.025 209.147 149.283 209.393C148.894 209.568 148.47 209.65 148.044 209.634Z" fill="#B72645"/>
<path d="M157.549 182.402C154.715 183.466 149.895 181.304 150.783 177.301C150.941 176.576 151.309 175.913 151.841 175.395C151.856 175.378 151.872 175.362 151.891 175.35C152.46 174.849 153.128 174.474 153.851 174.247C154.574 174.021 155.337 173.949 156.09 174.036C156.485 174.064 156.875 174.136 157.254 174.251C158.169 174.505 158.977 175.049 159.556 175.801C159.666 175.955 159.768 176.114 159.862 176.278C159.897 176.338 159.922 176.398 159.957 176.463C159.992 176.529 160.083 176.719 160.138 176.85C160.193 176.98 160.193 176.975 160.218 177.04C160.95 179.117 160.113 181.454 157.549 182.402Z" fill="#C64252"/>
<path d="M156.451 184.82C153.747 185.116 150.091 183.631 150.081 180.807C150.081 178.951 150.447 176.092 151.841 175.415C151.309 175.933 150.941 176.596 150.783 177.321C149.895 181.334 154.69 183.486 157.549 182.422C160.113 181.474 160.95 179.137 160.218 177.06C161.964 180.617 159.782 184.459 156.451 184.82Z" fill="#B5354B"/>
<path opacity="0.4" d="M154.525 175.686C154.836 174.863 156.306 174.793 157.148 175.43C157.65 175.806 158.332 177.03 157.449 177.336C156.807 177.562 156.351 176.704 155.834 176.504C155.453 176.353 154.425 176.504 154.485 175.862C154.489 175.801 154.503 175.742 154.525 175.686Z" fill="#EEFFFF"/>
<path opacity="0.4" d="M158.598 177.731C157.76 178.017 158.598 179.176 159.145 178.378C159.19 178.298 159.21 178.206 159.201 178.114C159.193 178.022 159.156 177.935 159.097 177.864C159.037 177.794 158.957 177.743 158.868 177.719C158.779 177.696 158.685 177.7 158.598 177.731Z" fill="#EEFFFF"/>
<path d="M160.278 177.205C160.445 177.444 160.549 177.722 160.579 178.012C160.746 178.803 160.66 179.626 160.333 180.365C160.103 180.878 159.76 181.332 159.33 181.694C158.828 182.099 158.242 182.387 157.615 182.537C156.195 182.892 154.7 182.797 153.336 182.266C152.622 181.988 151.989 181.537 151.495 180.952C151.014 180.418 150.67 179.776 150.492 179.081C150.352 178.447 150.377 177.787 150.562 177.165C150.706 176.623 150.965 176.119 151.319 175.685C151.846 175.081 152.523 174.626 153.281 174.366C153.545 174.247 153.829 174.177 154.118 174.16C153.87 174.298 153.612 174.419 153.346 174.521C152.649 174.823 152.035 175.288 151.555 175.876C151.245 176.285 151.022 176.755 150.903 177.255C150.754 177.822 150.751 178.417 150.893 178.986C151.073 179.635 151.402 180.234 151.854 180.735C152.306 181.236 152.868 181.624 153.496 181.87C154.776 182.364 156.173 182.463 157.509 182.156C158.086 182.029 158.628 181.779 159.099 181.423C159.496 181.098 159.821 180.693 160.052 180.235C160.38 179.552 160.502 178.788 160.404 178.038C160.358 177.481 160.233 177.215 160.278 177.205Z" fill="#B72645"/>
<path d="M144.182 190.462C141.297 191.526 136.502 189.359 137.39 185.356C137.549 184.632 137.915 183.97 138.443 183.45L138.498 183.405C139.065 182.906 139.729 182.532 140.449 182.306C141.168 182.079 141.927 182.006 142.677 182.091C143.071 182.122 143.461 182.194 143.841 182.306C144.773 182.551 145.599 183.098 146.188 183.861C146.299 184.012 146.402 184.17 146.494 184.333L146.589 184.518L146.77 184.905C146.795 184.965 146.825 185.03 146.85 185.095C147.558 187.172 146.72 189.519 144.182 190.462Z" fill="#C64252"/>
<path d="M143.058 192.876C140.349 193.172 136.698 191.687 136.683 188.863C136.683 187.007 137.054 184.148 138.443 183.471C137.914 183.99 137.548 184.653 137.39 185.377C136.502 189.36 141.297 191.527 144.182 190.463C146.745 189.51 147.583 187.173 146.85 185.096C148.571 188.672 146.389 192.53 143.058 192.876Z" fill="#B5354B"/>
<path opacity="0.4" d="M141.132 183.742C141.443 182.919 142.912 182.849 143.755 183.486C144.257 183.862 144.939 185.086 144.056 185.397C143.414 185.623 142.958 184.76 142.441 184.559C142.06 184.409 141.031 184.559 141.092 183.917C141.096 183.857 141.11 183.798 141.132 183.742Z" fill="#EEFFFF"/>
<path opacity="0.4" d="M145.185 185.788C144.347 186.074 145.185 187.232 145.732 186.435C145.777 186.355 145.797 186.262 145.788 186.17C145.78 186.078 145.743 185.991 145.684 185.921C145.624 185.85 145.544 185.8 145.455 185.776C145.366 185.752 145.272 185.756 145.185 185.788Z" fill="#EEFFFF"/>
<path d="M146.885 185.261C147.052 185.501 147.156 185.779 147.186 186.069C147.353 186.859 147.267 187.682 146.94 188.421C146.71 188.934 146.367 189.388 145.937 189.751C145.434 190.154 144.848 190.442 144.222 190.593C142.802 190.948 141.307 190.854 139.943 190.322C139.23 190.047 138.596 189.599 138.097 189.018C137.628 188.481 137.293 187.84 137.119 187.147C136.98 186.513 137.004 185.854 137.189 185.231C137.334 184.69 137.592 184.185 137.947 183.751C138.473 183.147 139.15 182.692 139.908 182.432C140.172 182.313 140.456 182.244 140.746 182.227C140.497 182.365 140.239 182.485 139.973 182.588C139.27 182.884 138.649 183.345 138.162 183.932C137.851 184.341 137.631 184.811 137.515 185.311C137.358 185.876 137.346 186.471 137.48 187.042C137.66 187.692 137.99 188.291 138.441 188.791C138.893 189.292 139.455 189.681 140.084 189.926C141.363 190.42 142.76 190.52 144.096 190.212C144.672 190.084 145.213 189.833 145.681 189.475C146.1 189.159 146.445 188.755 146.69 188.291C147.018 187.61 147.14 186.848 147.041 186.099C146.966 185.557 146.85 185.271 146.885 185.261Z" fill="#B72645"/>
<path d="M167.13 195.163C164.206 196.041 159.566 193.533 160.735 189.62C160.941 188.905 161.353 188.267 161.918 187.784C161.918 187.784 161.954 187.784 161.969 187.744C162.571 187.282 163.263 186.952 164.001 186.774C164.739 186.596 165.506 186.574 166.252 186.711C166.644 186.77 167.029 186.869 167.401 187.007C168.297 187.323 169.067 187.921 169.593 188.712C169.694 188.873 169.785 189.041 169.864 189.214C169.899 189.279 169.919 189.339 169.949 189.404C169.979 189.47 170.055 189.67 170.105 189.806C170.155 189.941 170.15 189.931 170.17 189.996C170.767 192.113 169.764 194.385 167.13 195.163Z" fill="#C64252"/>
<path d="M165.871 197.501C163.152 197.616 159.606 195.891 159.782 193.031C159.902 191.18 160.469 188.351 161.903 187.77C161.341 188.258 160.934 188.902 160.735 189.62C159.581 193.553 164.246 196.031 167.145 195.138C169.769 194.361 170.762 192.088 170.155 189.962C171.655 193.673 169.217 197.36 165.871 197.501Z" fill="#B5354B"/>
<path opacity="0.4" d="M164.562 188.255C164.928 187.453 166.398 187.483 167.195 188.175C167.667 188.581 168.269 189.85 167.366 190.101C166.714 190.282 166.318 189.394 165.811 189.158C165.445 188.987 164.406 189.053 164.507 188.431C164.518 188.37 164.536 188.311 164.562 188.255Z" fill="#EEFFFF"/>
<path opacity="0.4" d="M168.49 190.568C167.637 190.799 168.394 192.013 168.991 191.25C169.042 191.173 169.068 191.083 169.066 190.991C169.063 190.898 169.033 190.809 168.978 190.735C168.923 190.66 168.847 190.605 168.76 190.575C168.673 190.545 168.578 190.543 168.49 190.568Z" fill="#EEFFFF"/>
<path d="M170.2 190.157C170.349 190.409 170.433 190.693 170.446 190.985C170.56 191.783 170.419 192.598 170.045 193.312C169.782 193.809 169.41 194.24 168.956 194.571C168.43 194.943 167.826 195.191 167.191 195.298C165.749 195.558 164.263 195.364 162.937 194.742C162.243 194.419 161.642 193.927 161.186 193.312C160.748 192.746 160.455 192.081 160.334 191.376C160.253 190.777 160.306 190.169 160.488 189.593C160.67 189.017 160.977 188.489 161.387 188.045C161.95 187.477 162.655 187.068 163.428 186.861C163.7 186.76 163.987 186.709 164.276 186.711C164.02 186.832 163.755 186.934 163.484 187.017C162.77 187.272 162.127 187.693 161.608 188.246C161.267 188.634 161.014 189.091 160.865 189.585C160.679 190.14 160.634 190.734 160.735 191.311C160.872 191.97 161.161 192.589 161.577 193.118C161.994 193.647 162.528 194.073 163.138 194.36C164.389 194.945 165.788 195.137 167.15 194.912C167.725 194.819 168.274 194.606 168.761 194.285C169.171 193.988 169.513 193.607 169.764 193.167C170.133 192.516 170.307 191.772 170.265 191.025C170.265 190.458 170.165 190.167 170.2 190.157Z" fill="#B72645"/>
<path d="M153.211 202.306C150.301 203.173 145.687 200.695 146.82 196.763C147.025 196.049 147.435 195.41 147.999 194.927C148.015 194.912 148.034 194.901 148.054 194.892C148.655 194.429 149.346 194.097 150.083 193.918C150.82 193.74 151.587 193.717 152.333 193.854C152.725 193.911 153.11 194.01 153.481 194.149C154.376 194.466 155.144 195.064 155.668 195.855C155.769 196.017 155.861 196.185 155.944 196.357L156.03 196.547C156.085 196.683 156.135 196.813 156.185 196.948C156.235 197.084 156.23 197.074 156.245 197.139C156.842 199.256 155.849 201.528 153.211 202.306Z" fill="#C64252"/>
<path d="M151.972 204.643C149.253 204.758 145.706 203.033 145.882 200.189C145.997 198.338 146.569 195.509 147.999 194.927C147.435 195.41 147.025 196.048 146.82 196.763C145.686 200.695 150.301 203.173 153.21 202.305C155.829 201.528 156.822 199.256 156.22 197.129C157.75 200.816 155.317 204.502 151.972 204.643Z" fill="#B5354B"/>
<path opacity="0.4" d="M150.662 195.399C151.029 194.596 152.493 194.626 153.291 195.318C153.793 195.725 154.369 196.994 153.466 197.245C152.809 197.425 152.413 196.537 151.911 196.302C151.54 196.131 150.502 196.196 150.607 195.574C150.616 195.513 150.634 195.454 150.662 195.399Z" fill="#EEFFFF"/>
<path opacity="0.4" d="M154.585 197.711C153.732 197.942 154.49 199.156 155.087 198.393C155.137 198.316 155.163 198.225 155.161 198.133C155.159 198.041 155.128 197.952 155.073 197.877C155.019 197.803 154.943 197.747 154.855 197.718C154.768 197.688 154.674 197.685 154.585 197.711Z" fill="#EEFFFF"/>
<path d="M156.301 197.3C156.449 197.551 156.534 197.835 156.546 198.127C156.646 198.805 156.559 199.498 156.293 200.13C156.028 200.762 155.595 201.31 155.042 201.714C154.513 202.085 153.908 202.334 153.271 202.441C151.83 202.701 150.343 202.506 149.017 201.884C148.323 201.56 147.721 201.066 147.267 200.45C146.831 199.884 146.539 199.221 146.414 198.518C146.317 197.876 146.386 197.22 146.615 196.612C146.792 196.081 147.083 195.595 147.467 195.188C148.032 194.618 148.739 194.21 149.514 194.004C149.785 193.903 150.072 193.852 150.362 193.854C150.104 193.975 149.837 194.077 149.564 194.16C148.852 194.417 148.211 194.838 147.693 195.388C147.357 195.777 147.106 196.231 146.956 196.723C146.761 197.278 146.71 197.873 146.805 198.453C146.942 199.112 147.229 199.729 147.644 200.258C148.059 200.787 148.591 201.213 149.198 201.503C150.449 202.089 151.847 202.283 153.211 202.06C153.793 201.972 154.349 201.758 154.841 201.433C155.263 201.14 155.616 200.758 155.874 200.314C156.245 199.655 156.419 198.903 156.376 198.147C156.361 197.601 156.265 197.31 156.301 197.3Z" fill="#B72645"/>
</g>
<path d="M143.759 177.01C140.822 178.071 135.948 175.811 136.891 171.731C137.06 170.992 137.441 170.319 137.988 169.794L138.044 169.747C138.63 169.241 139.317 168.863 140.058 168.639C140.8 168.415 141.581 168.349 142.349 168.446C142.751 168.478 143.148 168.555 143.533 168.676C144.465 168.947 145.285 169.511 145.87 170.286C145.981 170.442 146.084 170.605 146.178 170.772C146.214 170.839 146.239 170.901 146.275 170.962C146.311 171.024 146.398 171.229 146.455 171.367C146.484 171.429 146.51 171.492 146.532 171.557C147.264 173.689 146.383 176.067 143.759 177.01Z" fill="#2679B2"/>
<path d="M142.605 179.469C139.843 179.746 136.122 178.193 136.137 175.282C136.137 173.386 136.563 170.47 137.987 169.793C137.441 170.318 137.06 170.991 136.891 171.73C135.948 175.831 140.822 178.07 143.759 177.009C146.383 176.066 147.264 173.688 146.531 171.556C148.284 175.231 146.014 179.131 142.605 179.469Z" fill="#246896"/>
<path opacity="0.4" d="M140.735 170.117C141.063 169.276 142.559 169.22 143.415 169.881C143.928 170.271 144.609 171.526 143.702 171.834C143.041 172.059 142.59 171.178 142.062 170.963C141.678 170.809 140.617 170.963 140.689 170.296C140.693 170.234 140.709 170.174 140.735 170.117Z" fill="#EEFFFF"/>
<path opacity="0.4" d="M144.871 172.248C144.015 172.53 144.871 173.724 145.424 172.915C145.472 172.833 145.493 172.739 145.485 172.645C145.477 172.55 145.441 172.461 145.38 172.388C145.32 172.316 145.239 172.263 145.148 172.238C145.057 172.213 144.96 172.217 144.871 172.248Z" fill="#EEFFFF"/>
<path d="M146.598 171.725C146.761 171.975 146.863 172.259 146.895 172.556C147.058 173.364 146.963 174.203 146.624 174.954C146.386 175.474 146.036 175.934 145.599 176.302C145.082 176.712 144.479 177.001 143.836 177.148C142.382 177.493 140.857 177.382 139.469 176.83C138.736 176.54 138.088 176.072 137.583 175.467C137.104 174.915 136.766 174.256 136.599 173.545C136.484 172.939 136.503 172.315 136.656 171.717C136.808 171.119 137.089 170.562 137.48 170.085C138.023 169.473 138.718 169.015 139.495 168.758C139.767 168.638 140.059 168.569 140.356 168.553C140.101 168.695 139.835 168.817 139.561 168.917C138.846 169.217 138.213 169.685 137.716 170.28C137.394 170.695 137.164 171.174 137.04 171.684C136.875 172.26 136.858 172.868 136.988 173.452C137.168 174.117 137.498 174.731 137.954 175.247C138.411 175.763 138.98 176.166 139.618 176.425C140.921 176.942 142.348 177.058 143.718 176.758C144.311 176.637 144.87 176.388 145.358 176.03C145.769 175.704 146.104 175.294 146.342 174.826C146.685 174.133 146.819 173.354 146.726 172.586C146.675 172.033 146.557 171.741 146.598 171.725Z" fill="#085F82"/>
<path d="M174.003 179.491C174.177 182.34 149.94 196.993 147.592 195.789L147.526 195.748C142.764 193.185 131.125 178.189 130.612 174.668C130.605 174.572 130.605 174.476 130.612 174.381C130.642 174.141 130.714 173.908 130.828 173.694C133.093 169.045 152.754 156.319 155.121 156.555C157.94 156.837 173.475 175.037 174.003 179.491Z" fill="#F2C85F"/>
<path d="M173.501 195.856C171.292 198.039 154.281 208.403 149.412 209.694L149.232 209.735C148.931 209.84 148.605 209.856 148.294 209.781C148.236 209.753 148.19 209.703 148.166 209.643C147.408 208.372 147.474 198.993 147.526 195.748L147.608 195.789C149.94 196.994 174.177 182.341 174.003 179.517C174.69 182.576 175.397 193.97 173.501 195.856Z" fill="#E5AE33"/>
<path d="M148.166 209.663C143.287 208.321 132.15 195.61 131.545 191.92C129.352 178.046 130.125 174.535 130.817 173.694C130.708 173.909 130.638 174.142 130.612 174.381C130.605 174.477 130.605 174.573 130.612 174.668C131.125 178.189 142.749 193.201 147.526 195.748C147.474 198.993 147.408 208.372 148.166 209.663Z" fill="#EDBB4A"/>
<path d="M147.802 196.163C147.802 196.163 147.695 196.163 147.526 196.076C147.267 195.968 147.022 195.832 146.793 195.671C145.964 195.091 145.18 194.449 144.45 193.749C142.037 191.452 139.784 188.993 137.706 186.389C135.582 183.822 133.66 181.096 131.955 178.235C131.653 177.666 131.371 177.158 131.15 176.697C130.93 176.236 130.776 175.821 130.638 175.487C130.504 175.137 130.427 174.766 130.412 174.391C130.626 174.693 130.789 175.029 130.894 175.385L131.494 176.543C131.74 176.974 132.052 177.461 132.37 178.004C134.183 180.756 136.142 183.41 138.239 185.953C140.673 188.967 143.015 191.591 144.784 193.395C145.665 194.307 146.419 194.999 146.952 195.445C147.485 195.891 147.828 196.106 147.802 196.163Z" fill="#DDA035"/>
<path d="M148.346 209.857C148.161 209.898 147.423 206.782 147.244 202.861C147.064 198.94 147.244 195.788 147.403 195.783C147.562 195.778 147.746 198.945 147.915 202.82C148.084 206.695 148.551 209.857 148.346 209.857Z" fill="#DDA035"/>
<path d="M147.613 196.173C147.971 195.977 148.343 195.806 148.725 195.66C149.443 195.322 150.473 194.81 151.734 194.159C154.255 192.852 157.71 190.976 161.436 188.762C164.635 186.905 167.716 184.85 170.661 182.611C171.538 181.922 172.37 181.178 173.152 180.382C173.424 180.095 173.634 179.869 173.762 179.711C173.89 179.552 173.987 179.475 174.008 179.49C174.028 179.506 174.008 179.603 173.88 179.787C173.73 180.057 173.559 180.314 173.367 180.556C172.649 181.434 171.849 182.243 170.979 182.97C168.1 185.353 165.026 187.49 161.789 189.356C158.043 191.586 154.537 193.4 151.949 194.599C150.652 195.199 149.586 195.625 148.827 195.912C148.447 196.087 148.032 196.176 147.613 196.173Z" fill="#DDA035"/>
<path d="M153.112 188.404C150.293 189.747 145.219 187.973 145.763 183.822C145.854 183.064 146.168 182.351 146.665 181.772L146.716 181.721C147.25 181.161 147.895 180.719 148.61 180.423C149.325 180.128 150.094 179.985 150.867 180.004C151.272 179.999 151.675 180.037 152.072 180.116C153.027 180.293 153.899 180.775 154.557 181.49C154.68 181.639 154.803 181.792 154.911 181.946L155.024 182.125L155.244 182.505L155.342 182.689C156.274 184.744 155.634 187.205 153.112 188.404Z" fill="#EDBB4A"/>
<path d="M152.21 190.96C149.484 191.508 145.629 190.329 145.363 187.434C145.183 185.542 145.312 182.601 146.665 181.796C146.168 182.375 145.854 183.088 145.763 183.846C145.219 187.972 150.293 189.745 153.112 188.402C155.634 187.203 156.274 184.743 155.342 182.693C157.438 186.188 155.567 190.294 152.21 190.96Z" fill="#E5AE33"/>
<path opacity="0.4" d="M149.427 181.838C149.668 180.977 151.154 180.772 152.072 181.326C152.61 181.664 153.42 182.863 152.549 183.243C151.918 183.53 151.375 182.699 150.832 182.54C150.432 182.423 149.396 182.658 149.396 182.028C149.401 181.964 149.411 181.9 149.427 181.838Z" fill="#EEFFFF"/>
<path opacity="0.4" d="M153.753 183.555C152.928 183.924 153.886 185.026 154.368 184.165C154.573 183.796 154.137 183.386 153.753 183.555Z" fill="#EEFFFF"/>
<path d="M155.419 182.868C155.419 182.868 155.475 182.929 155.547 183.057C155.644 183.253 155.723 183.457 155.783 183.667C156.014 184.453 155.997 185.291 155.731 186.066C155.543 186.603 155.236 187.092 154.834 187.496C154.366 187.956 153.8 188.307 153.179 188.521C151.773 189.005 150.251 189.042 148.822 188.628C148.077 188.412 147.397 188.014 146.844 187.47C146.319 186.972 145.922 186.355 145.686 185.671C145.485 185.045 145.45 184.378 145.583 183.734C145.681 183.183 145.894 182.659 146.209 182.196C146.685 181.531 147.326 181.001 148.069 180.659C148.326 180.516 148.605 180.415 148.894 180.361C148.649 180.514 148.396 180.655 148.136 180.782C147.445 181.146 146.854 181.674 146.414 182.319C146.13 182.767 145.945 183.27 145.87 183.795C145.765 184.377 145.806 184.976 145.988 185.538C146.232 186.19 146.624 186.777 147.134 187.251C147.643 187.725 148.257 188.074 148.925 188.27C150.284 188.659 151.728 188.633 153.071 188.193C153.643 188.007 154.167 187.699 154.609 187.291C154.99 186.923 155.287 186.477 155.48 185.984C155.754 185.261 155.812 184.474 155.649 183.718C155.537 183.16 155.388 182.883 155.419 182.868Z" fill="#DDA035"/>
<path d="M167.125 179.865C164.306 181.203 159.232 179.435 159.77 175.283C159.864 174.527 160.178 173.814 160.672 173.233L160.723 173.187C161.416 172.5 162.268 171.994 163.203 171.714C164.138 171.434 165.128 171.389 166.084 171.583C167.038 171.761 167.908 172.243 168.565 172.956C168.688 173.1 168.811 173.254 168.918 173.407L169.036 173.587L169.252 173.971L169.349 174.151C170.287 176.211 169.641 178.666 167.125 179.865Z" fill="#EDBB4A"/>
<path d="M166.217 182.422C163.491 182.97 159.642 181.786 159.37 178.891C159.191 177.005 159.319 174.058 160.672 173.253C160.178 173.834 159.865 174.546 159.77 175.303C159.257 179.455 164.306 181.223 167.125 179.885C169.641 178.686 170.287 176.231 169.349 174.181C171.45 177.645 169.564 181.751 166.217 182.422Z" fill="#E5AE33"/>
<path opacity="0.4" d="M163.414 173.294C163.66 172.433 165.141 172.228 166.059 172.782C166.602 173.12 167.412 174.319 166.54 174.699C165.905 174.986 165.367 174.15 164.818 173.991C164.419 173.873 163.383 174.109 163.388 173.479C163.389 173.416 163.398 173.354 163.414 173.294Z" fill="#EEFFFF"/>
<path opacity="0.4" d="M167.766 175.007C166.94 175.376 167.894 176.483 168.381 175.617C168.586 175.258 168.15 174.843 167.766 175.007Z" fill="#EEFFFF"/>
<path d="M169.431 174.324C169.431 174.324 169.482 174.386 169.554 174.519C169.653 174.714 169.732 174.918 169.79 175.129C170.021 175.914 170.005 176.752 169.744 177.528C169.551 178.063 169.243 178.549 168.842 178.952C168.373 179.413 167.807 179.763 167.186 179.978C165.779 180.457 164.258 180.493 162.83 180.08C162.083 179.858 161.403 179.452 160.851 178.901C160.326 178.404 159.929 177.786 159.693 177.102C159.518 176.517 159.473 175.9 159.562 175.295C159.65 174.69 159.87 174.112 160.206 173.602C160.678 172.933 161.32 172.402 162.066 172.064C162.328 171.926 162.61 171.831 162.902 171.782C162.655 171.936 162.4 172.076 162.138 172.202C161.449 172.568 160.86 173.096 160.421 173.74C160.135 174.188 159.948 174.691 159.872 175.216C159.761 175.811 159.803 176.425 159.995 177C160.239 177.651 160.63 178.236 161.139 178.709C161.648 179.183 162.26 179.531 162.927 179.726C164.285 180.118 165.73 180.093 167.073 179.655C167.645 179.465 168.169 179.156 168.611 178.747C168.993 178.381 169.288 177.935 169.477 177.441C169.748 176.711 169.802 175.919 169.631 175.16C169.564 174.616 169.4 174.34 169.431 174.324Z" fill="#DDA035"/>
<path d="M143.374 176.446C140.555 177.784 135.487 176.016 136.025 171.864C136.118 171.107 136.432 170.394 136.927 169.814C136.941 169.794 136.958 169.777 136.978 169.763C137.511 169.202 138.156 168.76 138.872 168.464C139.587 168.168 140.356 168.026 141.13 168.046C141.534 168.039 141.938 168.077 142.334 168.159C143.289 168.335 144.162 168.817 144.82 169.532C144.946 169.677 145.064 169.83 145.173 169.988C145.214 170.045 145.25 170.106 145.286 170.163C145.322 170.219 145.435 170.419 145.507 170.547C145.578 170.675 145.573 170.665 145.604 170.731C146.537 172.797 145.896 175.247 143.374 176.446Z" fill="#EDBB4A"/>
<path d="M142.472 179.003C139.745 179.551 135.891 178.373 135.625 175.472C135.445 173.586 135.574 170.639 136.927 169.834C136.432 170.414 136.118 171.127 136.025 171.884C135.486 176.03 140.555 177.783 143.374 176.446C145.896 175.246 146.536 172.796 145.604 170.746C147.705 174.226 145.829 178.337 142.472 179.003Z" fill="#E5AE33"/>
<path opacity="0.4" d="M139.689 169.881C139.935 169.02 141.416 168.815 142.334 169.369C142.872 169.707 143.687 170.906 142.81 171.286C142.18 171.573 141.642 170.737 141.094 170.578C140.694 170.46 139.658 170.696 139.658 170.066C139.664 170.003 139.674 169.942 139.689 169.881Z" fill="#EEFFFF"/>
<path opacity="0.4" d="M144.015 171.592C143.19 171.961 144.148 173.069 144.635 172.207C144.671 172.121 144.681 172.026 144.662 171.934C144.644 171.842 144.598 171.757 144.532 171.691C144.465 171.625 144.381 171.581 144.289 171.563C144.197 171.545 144.101 171.556 144.015 171.592Z" fill="#EEFFFF"/>
<path d="M145.681 170.905C145.681 170.905 145.737 170.967 145.809 171.1C145.907 171.295 145.986 171.499 146.045 171.71C146.277 172.496 146.259 173.334 145.993 174.109C145.801 174.638 145.495 175.119 145.096 175.518C144.622 175.979 144.051 176.329 143.426 176.543C142.019 177.025 140.498 177.062 139.069 176.651C138.324 176.432 137.644 176.032 137.091 175.487C136.563 174.991 136.166 174.374 135.932 173.688C135.732 173.064 135.696 172.398 135.83 171.756C135.924 171.195 136.137 170.66 136.455 170.188C136.932 169.523 137.573 168.993 138.316 168.65C138.579 168.507 138.862 168.404 139.156 168.343C138.911 168.496 138.658 168.636 138.398 168.763C137.709 169.129 137.12 169.657 136.681 170.301C136.393 170.747 136.206 171.251 136.132 171.777C136.017 172.378 136.057 172.999 136.25 173.581C136.494 174.232 136.886 174.818 137.396 175.291C137.906 175.765 138.519 176.113 139.187 176.307C140.545 176.699 141.989 176.674 143.333 176.236C143.912 176.049 144.445 175.742 144.896 175.334C145.275 174.963 145.571 174.516 145.763 174.022C146.032 173.292 146.084 172.499 145.911 171.741C145.804 171.198 145.655 170.905 145.681 170.905Z" fill="#DDA035"/>
<path d="M157.387 167.902C154.568 169.245 149.494 167.472 150.037 163.32C150.127 162.563 150.439 161.85 150.934 161.27L150.985 161.219C151.52 160.658 152.166 160.216 152.882 159.92C153.598 159.625 154.368 159.482 155.142 159.502C155.547 159.503 155.95 159.546 156.346 159.63C157.3 159.808 158.17 160.29 158.827 161.003C158.954 161.148 159.072 161.301 159.181 161.46L159.299 161.639L159.519 162.018L159.611 162.203C160.549 164.243 159.908 166.703 157.387 167.902Z" fill="#EDBB4A"/>
<path d="M156.48 170.46C153.753 171.008 149.904 169.829 149.632 166.934C149.458 165.042 149.581 162.101 150.934 161.296C150.439 161.876 150.127 162.589 150.037 163.346C149.494 167.497 154.568 169.271 157.387 167.928C159.908 166.703 160.549 164.243 159.611 162.193C161.712 165.688 159.826 169.794 156.48 170.46Z" fill="#E5AE33"/>
<path opacity="0.4" d="M153.676 161.336C153.922 160.475 155.408 160.27 156.321 160.824C156.864 161.162 157.674 162.361 156.802 162.741C156.167 163.028 155.629 162.197 155.08 162.038C154.701 161.936 153.676 162.192 153.676 161.521C153.668 161.46 153.668 161.398 153.676 161.336Z" fill="#EEFFFF"/>
<path opacity="0.4" d="M158.028 163.054C157.202 163.423 158.156 164.525 158.643 163.664C158.848 163.295 158.412 162.885 158.028 163.054Z" fill="#EEFFFF"/>
<path d="M159.693 162.367C159.693 162.367 159.744 162.429 159.816 162.557C159.914 162.752 159.993 162.957 160.052 163.167C160.284 163.952 160.267 164.79 160.006 165.565C159.815 166.102 159.509 166.59 159.109 166.995C158.635 167.446 158.068 167.787 157.448 167.995C156.042 168.479 154.52 168.516 153.092 168.102C152.348 167.884 151.668 167.486 151.114 166.944C150.59 166.445 150.193 165.828 149.955 165.145C149.76 164.518 149.725 163.852 149.853 163.208C149.948 162.648 150.163 162.115 150.483 161.645C150.963 160.991 151.604 160.474 152.344 160.143C152.597 159.992 152.874 159.884 153.164 159.825C152.917 159.979 152.662 160.119 152.4 160.245C151.71 160.609 151.12 161.137 150.683 161.783C150.398 162.231 150.211 162.734 150.135 163.259C150.023 163.854 150.065 164.468 150.258 165.043C150.5 165.695 150.891 166.281 151.4 166.756C151.909 167.23 152.522 167.579 153.189 167.774C154.548 168.164 155.992 168.138 157.336 167.698C157.917 167.517 158.452 167.213 158.904 166.806C159.285 166.438 159.582 165.992 159.775 165.499C160.042 164.769 160.094 163.977 159.924 163.218C159.826 162.659 159.662 162.383 159.693 162.367Z" fill="#DDA035"/>
<path d="M143.272 162.51C140.325 163.535 135.482 161.203 136.481 157.139C136.658 156.402 137.049 155.733 137.603 155.217C137.619 155.2 137.636 155.185 137.655 155.171C138.249 154.672 138.941 154.304 139.686 154.09C140.431 153.875 141.212 153.819 141.98 153.925C142.383 153.967 142.779 154.052 143.164 154.176C144.098 154.454 144.916 155.03 145.491 155.816C145.599 155.975 145.701 156.139 145.794 156.329L145.886 156.524C145.947 156.657 146.009 156.79 146.06 156.923C146.111 157.057 146.116 157.052 146.137 157.118C146.824 159.235 145.917 161.598 143.272 162.51Z" fill="#4183C0"/>
<path d="M142.093 164.951C139.32 165.192 135.625 163.592 135.681 160.681C135.712 158.785 136.194 155.874 137.603 155.218C137.049 155.734 136.658 156.403 136.481 157.14C135.481 161.204 140.325 163.526 143.272 162.511C145.916 161.599 146.824 159.236 146.121 157.094C147.823 160.789 145.491 164.664 142.093 164.951Z" fill="#297CBC"/>
<path opacity="0.4" d="M140.366 155.577C140.704 154.741 142.206 154.705 143.051 155.377C143.564 155.771 144.225 157.037 143.313 157.335C142.652 157.55 142.211 156.663 141.683 156.443C141.299 156.279 140.243 156.397 140.32 155.756C140.328 155.695 140.344 155.635 140.366 155.577Z" fill="#F5FAF8"/>
<path opacity="0.4" d="M144.466 157.759C143.605 158.031 144.435 159.24 145.009 158.436C145.056 158.354 145.076 158.261 145.069 158.168C145.062 158.075 145.026 157.986 144.968 157.913C144.909 157.84 144.83 157.786 144.74 157.759C144.651 157.731 144.555 157.731 144.466 157.759Z" fill="#F5FAF8"/>
<path d="M146.183 157.261C146.346 157.51 146.445 157.795 146.47 158.091C146.605 158.779 146.55 159.49 146.309 160.147C146.069 160.805 145.653 161.385 145.107 161.823C144.584 162.222 143.981 162.502 143.339 162.643C141.879 162.972 140.353 162.84 138.972 162.263C138.249 161.965 137.612 161.489 137.122 160.88C136.648 160.323 136.318 159.657 136.163 158.942C136.028 158.295 136.064 157.624 136.266 156.995C136.431 156.452 136.713 155.952 137.091 155.529C137.646 154.92 138.354 154.47 139.141 154.227C139.406 154.102 139.69 154.023 139.982 153.991C139.727 154.134 139.459 154.253 139.182 154.345C138.467 154.638 137.831 155.096 137.327 155.683C136.998 156.093 136.759 156.568 136.625 157.077C136.453 157.651 136.429 158.259 136.553 158.845C136.722 159.513 137.044 160.133 137.495 160.655C137.945 161.177 138.51 161.587 139.146 161.853C140.443 162.39 141.871 162.525 143.246 162.243C143.838 162.123 144.397 161.879 144.886 161.525C145.31 161.207 145.659 160.802 145.911 160.336C146.259 159.646 146.401 158.87 146.322 158.102C146.26 157.579 146.147 157.277 146.183 157.261Z" fill="#0085B5"/>
<path d="M173.48 165.386V165.417C173.593 168.236 149.192 182.571 146.86 181.341C146.829 181.341 146.803 181.341 146.778 181.295C142.052 178.686 130.628 163.52 130.161 159.994C130.154 159.897 130.154 159.799 130.161 159.702C130.193 159.464 130.269 159.234 130.387 159.026C132.719 154.408 152.543 141.938 154.906 142.204C157.725 142.522 173.014 160.927 173.48 165.386Z" fill="#F3743A"/>
<path d="M172.768 181.74C170.533 183.898 153.384 194.041 148.495 195.281C148.437 195.302 148.376 195.316 148.315 195.322C148.013 195.425 147.687 195.437 147.377 195.358C147.322 195.327 147.278 195.278 147.254 195.219C146.516 193.918 146.701 184.538 146.783 181.294C146.783 181.294 146.834 181.294 146.865 181.34C149.197 182.57 173.598 168.235 173.485 165.416C174.141 168.481 174.705 179.89 172.768 181.74Z" fill="#C42F35"/>
<path d="M147.254 195.22C142.391 193.811 131.402 180.952 130.854 177.282C128.844 163.372 129.664 159.856 130.341 159.041C130.223 159.25 130.147 159.48 130.115 159.718C130.108 159.815 130.108 159.912 130.115 160.01C130.628 163.521 142.052 178.686 146.783 181.295C146.701 184.539 146.516 193.918 147.254 195.22Z" fill="#F15A22"/>
<path d="M147.064 181.709C147.064 181.709 146.962 181.709 146.793 181.617C146.538 181.505 146.295 181.366 146.07 181.202C145.247 180.61 144.471 179.955 143.748 179.244C141.372 176.911 139.155 174.421 137.111 171.792C135.026 169.205 133.142 166.464 131.473 163.591C131.176 163.017 130.904 162.51 130.689 162.054C130.474 161.598 130.32 161.177 130.177 160.839C130.046 160.487 129.972 160.117 129.956 159.742C130.163 160.058 130.319 160.403 130.418 160.767C130.576 161.08 130.771 161.464 131.002 161.91C131.232 162.356 131.514 162.838 131.858 163.386C133.634 166.155 135.559 168.826 137.624 171.387C140.017 174.462 142.329 177.081 144.076 178.916C144.948 179.838 145.691 180.535 146.224 181.002C146.757 181.468 147.09 181.668 147.064 181.709Z" fill="#C11750"/>
<path d="M147.428 195.43C147.254 195.466 146.562 192.355 146.439 188.419C146.316 184.482 146.506 181.346 146.67 181.346C146.834 181.346 146.957 184.513 147.09 188.393C147.223 192.273 147.608 195.394 147.428 195.43Z" fill="#C11750"/>
<path d="M146.875 181.72C147.241 181.529 147.618 181.357 148.003 181.207C148.72 180.879 149.761 180.382 151.032 179.752C153.594 178.481 157.054 176.677 160.805 174.488C164.024 172.675 167.126 170.662 170.092 168.461C170.982 167.793 171.828 167.069 172.624 166.293C172.901 166.011 173.106 165.78 173.239 165.627C173.373 165.473 173.465 165.396 173.485 165.406C173.506 165.416 173.455 165.519 173.347 165.703C173.197 165.97 173.026 166.224 172.834 166.462C172.1 167.328 171.287 168.125 170.405 168.84C167.506 171.167 164.421 173.252 161.18 175.072C157.407 177.251 153.876 179.019 151.272 180.198C149.971 180.782 148.899 181.223 148.141 181.474C147.743 181.652 147.31 181.736 146.875 181.72Z" fill="#C11750"/>
<path d="M156.587 153.896C153.692 154.982 148.766 152.773 149.673 148.684C149.835 147.942 150.211 147.265 150.755 146.736C150.769 146.718 150.787 146.702 150.806 146.69C151.387 146.178 152.07 145.795 152.808 145.563C153.547 145.332 154.327 145.258 155.096 145.347C155.499 145.376 155.898 145.45 156.285 145.567C157.22 145.827 158.045 146.382 158.637 147.151C158.75 147.308 158.854 147.47 158.95 147.638C158.986 147.699 159.012 147.761 159.047 147.828C159.083 147.894 159.176 148.089 159.232 148.222C159.288 148.355 159.288 148.35 159.314 148.417C160.062 150.539 159.206 152.927 156.587 153.896Z" fill="#F15A22"/>
<path d="M155.465 156.366C152.702 156.668 148.966 155.151 148.956 152.266C148.956 150.369 149.33 147.448 150.755 146.756C150.211 147.285 149.835 147.962 149.673 148.703C148.766 152.804 153.666 155.002 156.587 153.916C159.206 152.947 160.062 150.559 159.314 148.437C161.097 152.071 158.868 155.997 155.465 156.366Z" fill="#C42F35"/>
<path opacity="0.4" d="M153.497 147.033C153.814 146.192 155.316 146.121 156.177 146.772C156.69 147.156 157.387 148.406 156.485 148.719C155.829 148.95 155.362 148.073 154.834 147.868C154.445 147.715 153.394 147.868 153.456 147.212C153.46 147.151 153.474 147.09 153.497 147.033Z" fill="#F5FAF8"/>
<path opacity="0.4" d="M157.659 149.123C156.803 149.416 157.659 150.599 158.217 149.785C158.264 149.703 158.284 149.608 158.275 149.514C158.267 149.42 158.229 149.331 158.168 149.259C158.107 149.187 158.026 149.136 157.935 149.111C157.844 149.087 157.747 149.091 157.659 149.123Z" fill="#F5FAF8"/>
<path d="M159.375 148.586C159.546 148.83 159.651 149.114 159.683 149.411C159.854 150.219 159.766 151.06 159.432 151.815C159.196 152.338 158.846 152.803 158.407 153.173C157.894 153.587 157.295 153.881 156.654 154.034C155.203 154.396 153.675 154.3 152.282 153.757C151.553 153.473 150.906 153.012 150.401 152.414C149.91 151.869 149.558 151.213 149.376 150.502C149.233 149.854 149.258 149.181 149.448 148.545C149.595 147.991 149.859 147.476 150.222 147.033C150.76 146.415 151.451 145.951 152.225 145.685C152.496 145.563 152.786 145.492 153.081 145.475C152.827 145.616 152.563 145.739 152.292 145.844C151.58 146.152 150.953 146.627 150.462 147.227C150.145 147.646 149.918 148.126 149.796 148.637C149.644 149.216 149.64 149.824 149.786 150.405C149.97 151.069 150.306 151.681 150.768 152.193C151.23 152.704 151.804 153.101 152.446 153.352C153.753 153.857 155.181 153.958 156.546 153.644C157.135 153.514 157.689 153.259 158.171 152.896C158.577 152.563 158.908 152.15 159.145 151.681C159.48 150.984 159.604 150.204 159.503 149.436C159.457 148.868 159.329 148.596 159.375 148.586Z" fill="#C11750"/>
<path d="M142.929 162.131C139.982 163.217 135.082 161.003 135.989 156.913C136.151 156.173 136.525 155.497 137.065 154.966L137.122 154.92C137.7 154.41 138.379 154.028 139.114 153.797C139.85 153.565 140.625 153.49 141.391 153.577C141.794 153.609 142.192 153.682 142.58 153.797C143.533 154.047 144.377 154.606 144.979 155.386C145.092 155.54 145.197 155.701 145.291 155.868L145.389 156.057L145.573 156.452C145.599 156.514 145.63 156.58 145.655 156.647C146.378 158.769 145.522 161.167 142.929 162.131Z" fill="#F15A22"/>
<path d="M141.78 164.596C139.013 164.899 135.281 163.382 135.266 160.496C135.266 158.6 135.645 155.678 137.065 154.986C136.525 155.517 136.151 156.194 135.989 156.934C135.082 161.003 139.981 163.218 142.928 162.131C145.547 161.157 146.403 158.769 145.655 156.647C147.413 160.301 145.184 164.243 141.78 164.596Z" fill="#C42F35"/>
<path opacity="0.4" d="M139.812 155.263C140.13 154.423 141.632 154.351 142.493 155.002C143.005 155.386 143.702 156.637 142.8 156.955C142.144 157.185 141.678 156.304 141.15 156.099C140.761 155.945 139.71 156.099 139.771 155.443C139.776 155.381 139.79 155.321 139.812 155.263Z" fill="#F5FAF8"/>
<path opacity="0.4" d="M143.954 157.355C143.098 157.647 143.954 158.831 144.512 158.016C144.559 157.934 144.579 157.84 144.57 157.746C144.562 157.652 144.524 157.563 144.464 157.491C144.403 157.419 144.321 157.367 144.23 157.343C144.139 157.318 144.042 157.323 143.954 157.355Z" fill="#F5FAF8"/>
<path d="M145.691 156.816C145.862 157.06 145.967 157.344 145.999 157.641C146.169 158.449 146.082 159.29 145.748 160.045C145.512 160.568 145.162 161.033 144.722 161.403C144.208 161.815 143.61 162.109 142.97 162.264C141.519 162.626 139.991 162.53 138.598 161.987C137.869 161.705 137.221 161.247 136.712 160.654C136.232 160.105 135.89 159.45 135.712 158.743C135.57 158.095 135.595 157.421 135.784 156.785C135.931 156.232 136.195 155.716 136.558 155.273C137.096 154.656 137.787 154.191 138.562 153.925C138.832 153.804 139.122 153.732 139.418 153.715C139.164 153.856 138.9 153.979 138.629 154.084C137.91 154.387 137.276 154.858 136.778 155.457C136.46 155.875 136.235 156.355 136.117 156.867C135.956 157.444 135.944 158.052 136.081 158.635C136.265 159.299 136.602 159.911 137.063 160.423C137.525 160.934 138.1 161.331 138.741 161.582C140.048 162.087 141.476 162.188 142.842 161.874C143.43 161.744 143.982 161.487 144.461 161.121C144.889 160.798 145.241 160.385 145.491 159.911C145.826 159.216 145.951 158.437 145.85 157.672C145.773 157.118 145.655 156.826 145.691 156.816Z" fill="#C11750"/>
<path d="M166.376 166.934C163.388 167.831 158.648 165.268 159.842 161.27C160.052 160.54 160.473 159.888 161.051 159.394C161.051 159.394 161.087 159.394 161.103 159.353C161.718 158.881 162.425 158.544 163.179 158.362C163.933 158.18 164.717 158.158 165.48 158.298C165.88 158.358 166.273 158.46 166.653 158.6C167.569 158.923 168.355 159.534 168.893 160.343C168.996 160.507 169.089 160.678 169.17 160.855C169.206 160.922 169.226 160.983 169.257 161.05C169.288 161.117 169.364 161.322 169.416 161.46C169.467 161.598 169.462 161.588 169.482 161.655C170.092 163.818 169.067 166.139 166.376 166.934Z" fill="#F15A22"/>
<path d="M165.09 169.323C162.312 169.441 158.689 167.678 158.868 164.756C158.991 162.865 159.57 159.974 161.036 159.38C160.461 159.879 160.046 160.537 159.842 161.271C158.663 165.289 163.429 167.821 166.392 166.909C169.072 166.114 170.087 163.793 169.467 161.62C170.999 165.412 168.509 169.179 165.09 169.323Z" fill="#C42F35"/>
<path opacity="0.4" d="M163.753 159.877C164.127 159.057 165.628 159.087 166.443 159.795C166.925 160.21 167.54 161.506 166.618 161.763C165.951 161.947 165.546 161.04 165.029 160.799C164.655 160.625 163.594 160.692 163.696 160.056C163.707 159.994 163.726 159.934 163.753 159.877Z" fill="#F5FAF8"/>
<path opacity="0.4" d="M167.766 162.239C166.894 162.474 167.668 163.715 168.278 162.936C168.33 162.857 168.356 162.764 168.354 162.67C168.352 162.576 168.32 162.485 168.264 162.409C168.209 162.333 168.131 162.276 168.042 162.245C167.953 162.215 167.856 162.213 167.766 162.239Z" fill="#F5FAF8"/>
<path d="M169.513 161.819C169.665 162.076 169.751 162.366 169.764 162.665C169.881 163.481 169.737 164.313 169.354 165.043C169.086 165.55 168.706 165.99 168.242 166.329C167.704 166.709 167.087 166.963 166.438 167.072C164.965 167.338 163.447 167.139 162.092 166.503C161.383 166.173 160.768 165.671 160.303 165.043C159.855 164.465 159.556 163.785 159.432 163.064C159.35 162.453 159.404 161.831 159.59 161.243C159.776 160.654 160.089 160.114 160.508 159.661C161.084 159.08 161.804 158.663 162.594 158.452C162.871 158.348 163.165 158.296 163.46 158.298C163.198 158.422 162.928 158.526 162.65 158.611C161.921 158.871 161.264 159.302 160.734 159.866C160.386 160.263 160.127 160.729 159.975 161.235C159.784 161.802 159.738 162.408 159.842 162.998C159.982 163.672 160.277 164.304 160.703 164.845C161.129 165.385 161.674 165.82 162.297 166.114C163.575 166.711 165.005 166.908 166.397 166.678C166.985 166.583 167.545 166.365 168.042 166.037C168.461 165.733 168.811 165.344 169.067 164.894C169.445 164.229 169.623 163.469 169.58 162.706C169.58 162.126 169.477 161.829 169.513 161.819Z" fill="#C11750"/>
<path d="M152.154 174.232C149.181 175.118 144.466 172.587 145.624 168.568C145.834 167.839 146.252 167.186 146.829 166.692C146.846 166.678 146.865 166.665 146.885 166.657C147.499 166.184 148.205 165.845 148.959 165.662C149.712 165.479 150.495 165.457 151.257 165.596C151.658 165.655 152.051 165.756 152.431 165.898C153.345 166.221 154.129 166.833 154.665 167.641C154.769 167.806 154.863 167.977 154.947 168.153L155.034 168.348C155.091 168.486 155.142 168.62 155.193 168.758C155.245 168.896 155.239 168.886 155.255 168.953C155.865 171.116 154.85 173.437 152.154 174.232Z" fill="#F15A22"/>
<path d="M150.888 176.62C148.11 176.738 144.486 174.975 144.666 172.069C144.784 170.178 145.368 167.287 146.829 166.692C146.252 167.186 145.833 167.838 145.624 168.568C144.466 172.586 149.181 175.118 152.154 174.232C154.829 173.437 155.844 171.115 155.229 168.942C156.792 172.709 154.306 176.477 150.888 176.62Z" fill="#C42F35"/>
<path opacity="0.4" d="M149.55 167.174C149.924 166.354 151.421 166.385 152.236 167.092C152.748 167.508 153.338 168.804 152.415 169.061C151.744 169.245 151.339 168.338 150.827 168.097C150.447 167.923 149.386 167.989 149.494 167.354C149.503 167.291 149.522 167.231 149.55 167.174Z" fill="#F5FAF8"/>
<path opacity="0.4" d="M153.558 169.537C152.687 169.773 153.461 171.014 154.071 170.234C154.123 170.156 154.149 170.063 154.147 169.969C154.144 169.875 154.113 169.783 154.057 169.708C154.001 169.632 153.924 169.575 153.834 169.544C153.745 169.514 153.649 169.511 153.558 169.537Z" fill="#F5FAF8"/>
<path d="M155.311 169.117C155.463 169.374 155.549 169.664 155.562 169.962C155.664 170.655 155.575 171.363 155.304 172.009C155.033 172.655 154.591 173.214 154.025 173.627C153.485 174.007 152.866 174.261 152.215 174.37C150.743 174.636 149.224 174.437 147.869 173.801C147.16 173.469 146.545 172.966 146.081 172.335C145.636 171.757 145.337 171.08 145.209 170.362C145.11 169.706 145.181 169.036 145.414 168.415C145.596 167.872 145.893 167.375 146.286 166.959C146.863 166.377 147.585 165.96 148.377 165.749C148.654 165.646 148.947 165.594 149.243 165.596C148.979 165.72 148.707 165.824 148.428 165.908C147.701 166.171 147.046 166.601 146.516 167.164C146.173 167.561 145.916 168.025 145.763 168.527C145.564 169.095 145.511 169.703 145.609 170.296C145.749 170.968 146.042 171.599 146.466 172.14C146.89 172.681 147.434 173.116 148.054 173.412C149.332 174.01 150.761 174.208 152.154 173.981C152.749 173.891 153.318 173.672 153.82 173.34C154.251 173.041 154.611 172.651 154.875 172.197C155.255 171.523 155.433 170.755 155.388 169.983C155.373 169.424 155.275 169.127 155.311 169.117Z" fill="#C11750"/>
<path d="M165.013 153.73C162.741 151.492 161.189 148.553 160.798 145.708C160.41 142.888 161.157 140.203 163.42 138.265C169.833 132.773 177.912 132.737 186.631 136.502C198.439 141.601 203.902 154.224 201.035 164.737C199.833 169.146 197.13 173.706 193.187 176.734C189.274 179.737 184.116 181.257 177.855 179.607C173.073 178.347 170.812 173.169 172.318 168.159C172.596 167.235 172.806 166.319 172.801 165.344C172.796 164.355 172.57 163.361 172.052 162.265C171.042 160.131 168.893 157.552 165.013 153.73Z" fill="white" stroke="black" stroke-width="2"/>
<g clip-path="url(#clip0_562_15517)" filter="url(#filter1_d_562_15517)">
<path d="M89.7425 180.373C89.0377 181.735 83.0057 186.841 81.4635 186.878L81.4018 186.887C80.0099 186.768 74.5672 182.711 73.6311 181.658C72.7113 180.638 81.686 174.723 82.1606 174.877C83.5323 175.341 87.8476 177.909 89.7867 180.086C89.8319 180.137 89.8178 180.237 89.7425 180.373Z" fill="#6AD36C"/>
<path d="M90.3488 189.472C90.3044 190.986 82.4693 196.151 82.0615 195.617L82.0579 195.594C81.7035 194.974 81.4722 189.249 81.3957 186.872L81.4574 186.863C83.0142 186.823 89.1374 181.493 89.8428 180.135C90.341 181.929 90.3707 188.594 90.3488 189.472Z" fill="#5DC662"/>
<path d="M82.047 195.596C80.5902 195.301 73.8607 191.485 73.7728 190.147C73.4156 184.474 73.4512 182.266 73.5551 181.531C74.4857 182.55 80.0098 186.769 81.3848 186.875C81.4467 189.254 81.6926 194.976 82.047 195.596Z" fill="#5EBF5E"/>
<path d="M83.6596 181.587C81.6296 182.544 78.0081 181.145 78.4099 178.048C78.48 177.482 78.7103 176.954 79.0715 176.529L79.1067 176.493C79.4927 176.083 79.9578 175.763 80.4722 175.554C80.9865 175.344 81.5387 175.25 82.0931 175.277C82.3839 175.277 82.6741 175.313 82.9581 175.382C83.6428 175.527 84.2661 175.901 84.7332 176.446C84.8238 176.557 84.908 176.674 84.9853 176.795C85.0149 176.841 85.0366 176.884 85.0661 176.93C85.0957 176.976 85.1704 177.119 85.2228 177.216L85.2896 177.357C85.9499 178.904 85.4777 180.726 83.6596 181.587Z" fill="#5DC662"/>
<path d="M83.0019 183.485C81.0391 183.852 78.2788 182.911 78.1074 180.759C77.9823 179.326 78.0899 177.126 79.0713 176.529C78.7139 176.952 78.4858 177.477 78.4159 178.038C78.0032 181.137 81.6355 182.535 83.6655 181.578C85.4836 180.717 85.9547 178.887 85.2956 177.347C86.7775 179.977 85.4132 183.035 83.0019 183.485Z" fill="#5DC662"/>
<path opacity="0.4" d="M81.0483 176.606C81.2172 175.978 82.3126 175.844 82.951 176.307C83.3419 176.568 83.9147 177.464 83.2855 177.746C82.8307 177.953 82.4485 177.322 82.0561 177.193C81.7696 177.099 81.0245 177.259 81.0304 176.776C81.0287 176.719 81.0347 176.662 81.0483 176.606Z" fill="#EEFFFF"/>
<path opacity="0.4" d="M84.1357 177.969C83.5404 178.23 84.2241 179.074 84.5812 178.435C84.6091 178.371 84.6174 178.299 84.605 178.229C84.5925 178.159 84.5599 178.094 84.5114 178.043C84.463 177.993 84.4011 177.958 84.334 177.945C84.2668 177.932 84.1977 177.94 84.1357 177.969Z" fill="#EEFFFF"/>
<path d="M85.3467 177.483C85.484 177.657 85.5768 177.865 85.6165 178.085C85.7832 178.679 85.7693 179.31 85.5768 179.89C85.4377 180.292 85.2139 180.655 84.9217 180.953C84.5781 181.288 84.1663 181.538 83.7162 181.686C82.699 182.031 81.6 182.038 80.5708 181.704C80.0313 181.526 79.5407 181.212 79.1432 180.79C78.7677 180.405 78.4842 179.933 78.3161 179.413C78.1765 178.938 78.1549 178.434 78.2534 177.951C78.3298 177.528 78.4958 177.129 78.7393 176.783C79.0871 176.294 79.5549 175.912 80.0945 175.676C80.2749 175.576 80.4706 175.509 80.6733 175.476C80.5025 175.598 80.321 175.704 80.1311 175.791C79.6412 176.06 79.2201 176.445 78.9018 176.917C78.7001 177.246 78.567 177.616 78.511 178.004C78.4308 178.442 78.4575 178.896 78.5886 179.324C78.7603 179.809 79.0368 180.247 79.3966 180.605C79.7563 180.963 80.1894 181.23 80.6622 181.386C81.6358 181.699 82.6733 181.701 83.64 181.392C84.0531 181.265 84.4337 181.046 84.7558 180.75C85.0301 180.483 85.2454 180.158 85.3871 179.796C85.5752 179.257 85.6134 178.672 85.4972 178.108C85.4219 177.7 85.3213 177.487 85.3467 177.483Z" fill="#62B257"/>
<path d="M81.4088 186.933C81.3893 186.998 80.8559 186.872 80.0721 186.479C79.0688 185.96 78.1039 185.363 77.186 184.692C76.2531 184.04 75.3594 183.328 74.5099 182.561C73.859 181.972 73.5103 181.53 73.5618 181.479C73.6133 181.428 75.3172 182.726 77.4761 184.242C78.5495 185.01 79.5366 185.678 80.2598 186.135C80.983 186.592 81.441 186.854 81.4088 186.933Z" fill="#62B257"/>
<path d="M81.334 187.049C81.3215 186.97 81.855 186.719 82.6603 186.161C83.4656 185.603 84.5503 184.787 85.7031 183.813C86.8559 182.839 87.8719 181.918 88.5885 181.246C88.9443 180.906 89.2353 180.628 89.4197 180.428C89.5197 180.33 89.5858 180.254 89.6332 180.2C89.6805 180.146 89.7211 180.12 89.7374 180.129C89.7537 180.138 89.7451 180.178 89.7274 180.255C89.6928 180.363 89.6424 180.466 89.5779 180.558C89.3641 180.901 89.1209 181.223 88.851 181.519C87.9798 182.5 87.0385 183.41 86.0349 184.243C85.0437 185.095 83.9778 185.85 82.8507 186.496C81.9694 186.973 81.3466 187.106 81.334 187.049Z" fill="#62B257"/>
<path d="M81.3175 186.943C81.4628 186.92 81.6969 188.88 81.933 191.279C82.1692 193.677 82.2653 195.635 82.1183 195.647C81.9713 195.658 81.6488 193.728 81.3987 191.312C81.1487 188.897 81.1771 186.95 81.3175 186.943Z" fill="#62B257"/>
</g>
<g filter="url(#filter2_d_562_15517)">
<path d="M237.022 175.15C236.131 177.091 225.346 182.358 223.315 181.592C223.263 181.575 223.213 181.549 223.169 181.515C218.36 177.985 209.016 164.921 209.379 164.409C209.42 164.348 209.469 164.289 209.518 164.229C211.136 162.289 217.962 158.484 220.716 158.218C222.577 158.049 235.93 172.383 236.995 174.661C236.987 174.812 236.992 174.965 237.022 175.15Z" fill="#DD5862"/>
<path d="M236.806 184.13C235.416 186.15 227.647 190.28 224.557 190.696C224.419 190.722 224.28 190.734 224.141 190.732L224.116 190.729C223.885 190.685 223.661 190.61 223.45 190.507C222.937 189.617 223.183 184.125 223.326 181.577C225.346 182.358 236.131 177.091 237.022 175.15C237.114 177.597 237.79 182.708 236.806 184.13Z" fill="#B5354B"/>
<path d="M223.442 190.509C219.292 188.64 207.828 175.909 207.901 173.767C208.183 165.819 209.137 164.467 209.518 164.228C209.469 164.288 209.42 164.347 209.379 164.408C209.016 164.92 218.36 177.984 223.171 181.502C223.215 181.536 223.264 181.562 223.317 181.579C223.174 184.127 222.93 189.603 223.442 190.509Z" fill="#C64252"/>
<path d="M223.706 181.906C223.429 181.777 223.174 181.605 222.95 181.396C222.304 180.884 221.689 180.334 221.108 179.749C219.235 177.831 217.47 175.81 215.82 173.697C213.838 171.229 212.151 168.932 210.977 167.233C209.804 165.533 209.159 164.421 209.218 164.379C209.277 164.338 209.438 164.618 209.795 165.071L211.269 167.016C212.512 168.654 214.246 170.912 216.201 173.368C218.156 175.823 220.003 178.001 221.394 179.511C222.085 180.271 222.675 180.854 223.083 181.257C223.322 181.442 223.532 181.66 223.706 181.906Z" fill="#B72645"/>
<path d="M223.628 190.628C223.563 190.649 223.359 190.161 223.268 189.347C223.151 188.296 223.112 187.238 223.15 186.181C223.219 183.722 223.42 181.74 223.555 181.742C223.691 181.743 223.738 183.752 223.654 186.197C223.625 187.427 223.605 188.527 223.617 189.323C223.628 190.118 223.701 190.605 223.628 190.628Z" fill="#B72645"/>
<path d="M237.135 174.946C237.178 174.989 236.629 175.666 235.525 176.501C234.069 177.564 232.515 178.486 230.885 179.254C229.27 180.042 227.6 180.713 225.888 181.26C224.571 181.677 223.728 181.802 223.71 181.75C223.692 181.698 224.495 181.412 225.769 180.916C227.043 180.419 228.783 179.692 230.657 178.788C232.261 178.024 233.814 177.161 235.309 176.202C236.45 175.462 237.076 174.889 237.135 174.946Z" fill="#B72645"/>
<path d="M220.236 166.74C217.673 167.15 214.03 164.549 215.437 161.359C215.686 160.778 216.103 160.284 216.633 159.94L216.682 159.913C217.24 159.589 217.859 159.387 218.5 159.318C219.141 159.249 219.79 159.316 220.404 159.513C220.729 159.603 221.044 159.728 221.342 159.887C222.062 160.252 222.645 160.84 223.004 161.563C223.07 161.705 223.129 161.85 223.182 161.998L223.229 162.169C223.263 162.288 223.289 162.403 223.319 162.522C223.349 162.641 223.342 162.632 223.35 162.694C223.617 164.56 222.534 166.372 220.236 166.74Z" fill="#C64252"/>
<path d="M218.915 168.57C216.609 168.368 213.809 166.527 214.267 164.147C214.572 162.595 215.36 160.275 216.634 159.931C216.103 160.275 215.687 160.769 215.437 161.35C214.031 164.54 217.674 167.141 220.236 166.731C222.534 166.364 223.618 164.551 223.349 162.698C224.23 165.98 221.754 168.821 218.915 168.57Z" fill="#B5354B"/>
<path opacity="0.4" d="M218.827 160.628C219.226 159.993 220.461 160.178 221.056 160.852C221.415 161.249 221.778 162.382 220.99 162.489C220.417 162.567 220.183 161.775 219.785 161.509C219.486 161.347 218.605 161.286 218.763 160.767C218.778 160.718 218.799 160.671 218.827 160.628Z" fill="#EEFFFF"/>
<path opacity="0.4" d="M221.885 163.013C221.14 163.114 221.646 164.216 222.214 163.64C222.263 163.582 222.293 163.511 222.301 163.435C222.309 163.36 222.294 163.284 222.259 163.217C222.224 163.15 222.169 163.094 222.103 163.058C222.036 163.022 221.96 163.006 221.885 163.013Z" fill="#EEFFFF"/>
<path d="M223.374 162.854C223.473 163.083 223.512 163.333 223.489 163.581C223.498 164.265 223.291 164.935 222.899 165.495C222.621 165.885 222.258 166.208 221.838 166.439C221.352 166.691 220.816 166.835 220.269 166.86C219.026 166.917 217.794 166.592 216.742 165.927C216.191 165.576 215.737 165.092 215.42 164.521C215.115 164 214.942 163.412 214.914 162.81C214.9 162.254 215.03 161.704 215.291 161.213C215.499 160.781 215.799 160.399 216.169 160.094C216.71 159.677 217.35 159.41 218.026 159.319C218.267 159.266 218.515 159.255 218.759 159.287C218.529 159.364 218.293 159.421 218.053 159.459C217.42 159.597 216.83 159.886 216.331 160.3C216.002 160.589 215.739 160.944 215.558 161.343C215.333 161.788 215.225 162.284 215.243 162.782C215.279 163.335 215.444 163.871 215.726 164.347C216.018 164.864 216.433 165.301 216.934 165.619C217.923 166.246 219.077 166.563 220.247 166.528C220.751 166.513 221.246 166.388 221.697 166.161C222.085 165.96 222.425 165.678 222.694 165.332C223.072 164.813 223.294 164.198 223.336 163.557C223.39 163.115 223.341 162.858 223.374 162.854Z" fill="#B72645"/>
<path d="M228.89 176.094C226.327 176.505 222.684 173.903 224.091 170.714C224.339 170.133 224.756 169.64 225.287 169.298C225.302 169.285 225.318 169.275 225.336 169.267C226.052 168.884 226.851 168.682 227.663 168.677C228.475 168.672 229.276 168.866 229.996 169.241C230.716 169.606 231.299 170.194 231.658 170.918C231.724 171.059 231.783 171.204 231.835 171.352L231.883 171.523C231.917 171.642 231.943 171.757 231.973 171.876C231.966 171.929 231.996 171.986 232.004 172.049C232.271 173.914 231.188 175.727 228.89 176.094Z" fill="#C64252"/>
<path d="M227.569 177.926C225.263 177.724 222.463 175.882 222.921 173.503C223.226 171.951 224.014 169.63 225.289 169.286C224.757 169.628 224.341 170.121 224.092 170.702C222.685 173.892 226.329 176.493 228.891 176.082C231.189 175.715 232.273 173.902 232.004 172.049C232.884 175.335 230.408 178.176 227.569 177.926Z" fill="#B5354B"/>
<path opacity="0.4" d="M227.481 169.983C227.88 169.348 229.115 169.534 229.71 170.208C230.069 170.604 230.432 171.737 229.644 171.844C229.071 171.922 228.837 171.13 228.439 170.865C228.147 170.679 227.262 170.621 227.419 170.107C227.434 170.063 227.455 170.022 227.481 169.983Z" fill="#EEFFFF"/>
<path opacity="0.4" d="M230.539 172.368C229.794 172.468 230.3 173.571 230.869 172.995C230.918 172.937 230.948 172.865 230.956 172.79C230.964 172.714 230.949 172.638 230.914 172.571C230.878 172.504 230.824 172.449 230.757 172.413C230.691 172.376 230.615 172.361 230.539 172.368Z" fill="#EEFFFF"/>
<path d="M232.028 172.208C232.127 172.437 232.166 172.686 232.143 172.934C232.152 173.619 231.945 174.288 231.553 174.848C231.275 175.239 230.912 175.562 230.492 175.792C230.006 176.045 229.47 176.188 228.923 176.213C227.68 176.271 226.449 175.945 225.396 175.281C224.845 174.929 224.391 174.446 224.074 173.874C223.769 173.353 223.596 172.766 223.568 172.163C223.554 171.607 223.684 171.057 223.945 170.567C224.153 170.134 224.453 169.752 224.823 169.447C225.364 169.031 226.004 168.764 226.68 168.673C226.921 168.619 227.169 168.608 227.413 168.641C227.183 168.717 226.947 168.775 226.707 168.812C226.074 168.951 225.484 169.239 224.985 169.653C224.657 169.942 224.393 170.298 224.212 170.696C223.987 171.142 223.879 171.637 223.897 172.136C223.933 172.688 224.098 173.224 224.38 173.7C224.672 174.218 225.087 174.655 225.588 174.972C226.577 175.6 227.731 175.916 228.901 175.881C229.405 175.867 229.9 175.742 230.351 175.515C230.739 175.314 231.079 175.031 231.348 174.686C231.726 174.167 231.949 173.551 231.99 172.91C232.044 172.469 231.995 172.212 232.028 172.208Z" fill="#B72645"/>
</g>
<g clip-path="url(#clip1_562_15517)" filter="url(#filter3_d_562_15517)">
<path d="M125.847 228.37C124.812 231.048 110.731 238.778 107.955 237.881C107.883 237.864 107.815 237.834 107.752 237.795C101.057 233.449 87.621 216.718 88.0755 216.007C88.1265 215.92 88.1851 215.838 88.2506 215.762C90.3038 213.073 99.1622 207.544 102.825 207C105.305 206.642 124.205 224.785 125.792 227.74C125.803 227.935 125.825 228.142 125.847 228.37Z" fill="#F29E5F"/>
<path d="M126.209 240.342C124.506 243.129 114.344 249.159 110.271 249.914C110.091 249.955 109.908 249.98 109.723 249.99H109.696C109.383 249.949 109.078 249.867 108.787 249.745C108.037 248.572 107.982 241.277 107.999 237.871C110.775 238.767 124.856 231.037 125.891 228.359C126.148 231.635 127.429 238.381 126.209 240.342Z" fill="#F28327"/>
<path d="M108.743 249.756C103.049 247.551 86.7944 231.412 86.7287 228.561C86.5535 217.968 87.7415 216.067 88.2343 215.763C88.1687 215.839 88.1101 215.921 88.0591 216.007C87.6211 216.719 101.057 233.449 107.752 237.795C107.815 237.835 107.883 237.864 107.955 237.882C107.939 241.288 107.993 248.583 108.743 249.756Z" fill="#EF8E3F"/>
<path d="M108.497 238.289C108.464 238.338 108.092 238.126 107.435 237.702C106.539 237.068 105.681 236.383 104.867 235.649C102.195 233.229 99.6669 230.657 97.2953 227.946C94.4866 224.806 92.0667 221.862 90.3859 219.679C88.7051 217.495 87.7634 216.05 87.8674 215.985C87.9714 215.92 89.0226 217.24 90.8239 219.325C92.6252 221.411 95.0998 224.296 97.8921 227.425C100.684 230.553 103.29 233.324 105.256 235.247C106.23 236.214 107.057 236.952 107.627 237.463C108.196 237.974 108.524 238.245 108.497 238.289Z" fill="#D87320"/>
<path d="M108.995 249.914C108.897 249.946 108.579 249.316 108.388 248.246C108.152 246.856 108.022 245.451 107.999 244.042C107.917 240.783 108.07 238.115 108.284 238.105C108.497 238.094 108.716 240.761 108.798 244.015C108.847 245.644 108.891 247.116 108.951 248.176C109.012 249.235 109.105 249.859 108.995 249.914Z" fill="#D87320"/>
<path d="M126.011 228.109C126.083 228.169 125.409 229.12 123.98 230.315C122.11 231.84 120.093 233.179 117.958 234.313C115.845 235.473 113.649 236.477 111.388 237.317C109.647 237.952 108.513 238.186 108.486 238.082C108.459 237.979 109.504 237.539 111.174 236.795C112.844 236.051 115.122 234.948 117.569 233.617C119.664 232.494 121.688 231.244 123.63 229.875C125.114 228.821 125.913 228.028 126.011 228.109Z" fill="#D87320"/>
<path d="M102.902 218.13C99.562 219.304 94.0433 216.729 95.1382 212.155C95.3362 211.325 95.7738 210.57 96.3975 209.982C96.417 209.963 96.4391 209.947 96.4632 209.934C97.1294 209.362 97.9096 208.935 98.7529 208.683C99.5963 208.43 100.484 208.356 101.358 208.467C101.815 208.51 102.267 208.601 102.705 208.738C103.761 209.048 104.688 209.691 105.344 210.569C105.469 210.744 105.584 210.925 105.688 211.112L105.798 211.324L106.001 211.78C106.001 211.846 106.061 211.922 106.088 211.998C106.909 214.41 105.891 217.082 102.902 218.13Z" fill="#EF8E3F"/>
<path d="M101.582 220.896C98.4396 221.189 94.2239 219.418 94.2622 216.137C94.2622 213.997 94.7769 210.705 96.3975 209.961C95.7738 210.548 95.3362 211.303 95.1382 212.134C94.0432 216.729 99.562 219.304 102.902 218.109C105.896 217.061 106.909 214.388 106.094 211.982C108.081 216.153 105.453 220.537 101.582 220.896Z" fill="#F28327"/>
<path opacity="0.4" d="M99.5126 210.341C99.8903 209.401 101.593 209.347 102.562 210.096C103.11 210.531 103.903 211.954 102.874 212.296C102.124 212.546 101.615 211.547 101.018 211.308C100.58 211.128 99.3757 211.27 99.4633 210.542C99.47 210.473 99.4866 210.405 99.5126 210.341Z" fill="#EEFFFF"/>
<path opacity="0.4" d="M104.199 212.77C103.225 213.085 104.199 214.437 104.823 213.525C104.866 213.432 104.882 213.33 104.869 213.229C104.856 213.128 104.814 213.032 104.749 212.954C104.684 212.875 104.598 212.816 104.501 212.783C104.403 212.751 104.299 212.746 104.199 212.77Z" fill="#EEFFFF"/>
<path d="M106.165 212.193C106.35 212.476 106.465 212.798 106.499 213.133C106.679 214.05 106.564 215 106.17 215.849C105.893 216.436 105.487 216.954 104.982 217.365C104.392 217.821 103.708 218.141 102.978 218.304C101.322 218.684 99.5877 218.548 98.0125 217.913C97.1902 217.581 96.4641 217.05 95.8991 216.371C95.3649 215.743 94.9895 214.998 94.8042 214.198C94.6569 213.458 94.704 212.693 94.941 211.976C95.1039 211.356 95.403 210.779 95.817 210.287C96.4381 209.6 97.2315 209.088 98.1165 208.804C98.4251 208.672 98.7553 208.596 99.091 208.581C98.8002 208.737 98.4982 208.871 98.1877 208.983C97.3741 209.318 96.6533 209.841 96.0853 210.509C95.715 210.973 95.4498 211.51 95.3078 212.085C95.1194 212.728 95.0949 213.407 95.2367 214.062C95.4359 214.818 95.8098 215.517 96.3286 216.104C96.8475 216.692 97.4971 217.151 98.226 217.446C99.7077 218.038 101.334 218.178 102.896 217.848C103.565 217.709 104.196 217.43 104.747 217.028C105.21 216.667 105.589 216.211 105.858 215.692C106.251 214.912 106.407 214.037 106.307 213.171C106.252 212.541 106.121 212.21 106.165 212.193Z" fill="#D87320"/>
<path d="M115.833 230.526C112.494 231.7 106.986 229.119 108.081 224.529C108.276 223.698 108.714 222.942 109.34 222.356L109.4 222.308C110.074 221.738 110.861 221.315 111.71 221.067C112.559 220.819 113.451 220.751 114.328 220.868C114.786 220.909 115.237 221 115.675 221.14C116.73 221.448 117.656 222.089 118.314 222.965C118.439 223.144 118.56 223.329 118.664 223.508L118.773 223.725C118.845 223.877 118.91 224.024 118.976 224.176C119.003 224.247 119.036 224.317 119.064 224.393C119.841 226.805 118.828 229.478 115.833 230.526Z" fill="#EF8E3F"/>
<path d="M114.514 233.286C111.366 233.585 107.156 231.809 107.189 228.528C107.189 226.393 107.703 223.096 109.329 222.352C108.704 222.937 108.266 223.693 108.07 224.524C106.975 229.114 112.494 231.695 115.834 230.5C118.828 229.478 119.841 226.806 119.031 224.383C120.986 228.544 118.385 232.933 114.514 233.286Z" fill="#F28327"/>
<path opacity="0.4" d="M112.461 222.753C112.839 221.813 114.541 221.759 115.505 222.508C116.052 222.948 116.852 224.372 115.823 224.714C115.072 224.964 114.558 223.964 113.961 223.72C113.523 223.546 112.319 223.682 112.406 222.959C112.415 222.888 112.434 222.819 112.461 222.753Z" fill="#EEFFFF"/>
<path opacity="0.4" d="M117.131 225.165C116.156 225.48 117.131 226.833 117.755 225.92C117.798 225.828 117.814 225.725 117.801 225.624C117.787 225.523 117.746 225.428 117.681 225.349C117.616 225.27 117.53 225.211 117.433 225.179C117.335 225.146 117.231 225.142 117.131 225.165Z" fill="#EEFFFF"/>
<path d="M119.097 224.589C119.28 224.87 119.395 225.19 119.431 225.523C119.609 226.441 119.495 227.39 119.102 228.239C118.829 228.818 118.431 229.33 117.936 229.739C117.34 230.199 116.648 230.522 115.91 230.684C114.254 231.064 112.52 230.927 110.944 230.293C110.119 229.955 109.392 229.417 108.831 228.728C108.291 228.105 107.915 227.358 107.736 226.556C107.608 225.872 107.634 225.17 107.811 224.498C107.988 223.825 108.312 223.2 108.76 222.666C109.38 221.977 110.174 221.463 111.059 221.178C111.369 221.048 111.699 220.973 112.034 220.955C111.744 221.112 111.442 221.247 111.131 221.357C110.316 221.691 109.595 222.214 109.028 222.883C108.658 223.35 108.391 223.889 108.245 224.464C108.056 225.113 108.033 225.798 108.18 226.458C108.348 227.186 108.689 227.864 109.176 228.435C109.698 229.053 110.363 229.536 111.114 229.842C112.594 230.434 114.218 230.574 115.779 230.244C116.449 230.105 117.082 229.825 117.635 229.424C118.104 229.059 118.49 228.6 118.768 228.076C119.156 227.294 119.311 226.418 119.217 225.551C119.179 224.926 119.031 224.6 119.097 224.589Z" fill="#D87320"/>
</g>
<g filter="url(#filter4_d_562_15517)">
<path d="M188.726 220.342C189.829 223.081 204.498 230.718 207.321 229.722C207.395 229.704 207.466 229.672 207.529 229.628C214.284 224.964 227.646 207.337 227.162 206.609C227.112 206.53 227.046 206.445 226.979 206.36C224.802 203.63 215.572 198.129 211.8 197.668C209.246 197.357 190.309 216.612 188.764 219.685C188.757 219.893 188.744 220.101 188.726 220.342Z" fill="#6AD36C"/>
<path d="M188.656 232.724C190.489 235.547 201.047 241.541 205.267 242.236C205.452 242.274 205.64 242.296 205.828 242.302C206.169 242.255 206.501 242.159 206.814 242.017C207.553 240.792 207.44 233.245 207.32 229.721C204.504 230.718 189.857 223.08 188.725 220.341C188.475 223.716 187.356 230.731 188.656 232.724Z" fill="#5EBF5E"/>
<path d="M206.814 242.016C212.596 239.598 228.865 222.514 228.842 219.553C228.754 208.597 227.488 206.677 226.979 206.359C227.045 206.443 227.112 206.528 227.162 206.607C227.646 207.335 214.283 224.963 207.529 229.627C207.466 229.67 207.395 229.702 207.321 229.721C207.424 233.244 207.553 240.791 206.814 242.016Z" fill="#5DC662"/>
<path d="M206.778 230.162C206.811 230.207 207.189 229.98 207.85 229.524C208.755 228.852 209.618 228.125 210.434 227.346C213.116 224.777 215.648 222.055 218.017 219.194C220.812 215.877 223.217 212.771 224.892 210.463C226.566 208.155 227.482 206.645 227.376 206.582C227.269 206.519 226.214 207.888 224.417 210.122C222.619 212.356 220.158 215.361 217.37 218.666C214.581 221.972 211.98 224.902 210.004 226.938C209.025 227.959 208.199 228.745 207.627 229.292C207.056 229.838 206.739 230.111 206.778 230.162Z" fill="#62B257"/>
<path d="M206.554 242.171C206.661 242.206 206.969 241.545 207.129 240.434C207.338 238.991 207.437 237.534 207.425 236.076C207.422 232.705 207.195 229.95 206.976 229.948C206.757 229.947 206.579 232.699 206.582 236.07C206.57 237.755 206.559 239.278 206.551 240.373C206.542 241.469 206.436 242.137 206.554 242.171Z" fill="#62B257"/>
<path d="M188.553 220.071C188.474 220.138 189.192 221.11 190.683 222.335C192.641 223.864 194.744 225.197 196.963 226.314C199.158 227.459 201.434 228.441 203.773 229.252C205.578 229.861 206.745 230.072 206.774 229.966C206.803 229.859 205.716 229.435 203.974 228.692C202.232 227.949 199.897 226.858 197.334 225.547C195.157 224.437 193.05 223.196 191.024 221.831C189.503 220.781 188.649 219.971 188.553 220.071Z" fill="#62B257"/>
<path d="M212.129 209.408C215.641 210.074 220.752 206.629 218.925 202.182C218.6 201.374 218.044 200.68 217.327 200.187C217.327 200.187 217.282 200.187 217.26 200.147C216.504 199.681 215.659 199.379 214.78 199.259C213.9 199.14 213.005 199.205 212.152 199.452C211.71 199.56 211.279 199.713 210.868 199.909C209.864 200.38 209.038 201.162 208.514 202.139C208.416 202.338 208.328 202.541 208.251 202.749C208.25 202.828 208.205 202.901 208.176 202.979C208.13 203.147 208.09 203.304 208.043 203.467L207.991 203.697C207.551 206.284 208.976 208.817 212.129 209.408Z" fill="#5DC662"/>
<path d="M213.874 211.982C217.061 211.792 220.984 209.36 220.441 206.069C220.086 203.92 219.082 200.694 217.344 200.186C218.061 200.68 218.617 201.374 218.942 202.181C220.751 206.628 215.641 210.074 212.146 209.435C208.992 208.85 207.567 206.311 208.007 203.786C206.682 208.215 209.956 212.223 213.874 211.982Z" fill="#5DC662"/>
<path opacity="0.4" d="M214.298 201.058C213.776 200.166 212.055 200.378 211.223 201.277C210.719 201.835 210.168 203.359 211.251 203.524C212.037 203.654 212.382 202.572 212.946 202.239C213.358 201.995 214.578 201.948 214.381 201.233C214.36 201.171 214.332 201.113 214.298 201.058Z" fill="#EEFFFF"/>
<path opacity="0.4" d="M209.999 204.217C211.02 204.381 210.284 205.904 209.492 205.072C209.439 204.985 209.41 204.885 209.409 204.783C209.408 204.68 209.435 204.58 209.487 204.492C209.539 204.403 209.614 204.331 209.705 204.283C209.795 204.234 209.896 204.211 209.999 204.217Z" fill="#EEFFFF"/>
<path d="M207.95 203.943C207.815 204.258 207.753 204.6 207.768 204.942C207.735 205.886 207.997 206.817 208.518 207.605C208.884 208.15 209.368 208.605 209.935 208.936C210.589 209.299 211.314 209.515 212.06 209.57C213.769 209.693 215.475 209.288 216.946 208.409C217.718 207.95 218.364 207.306 218.825 206.535C219.263 205.823 219.526 205.016 219.59 204.181C219.623 203.424 219.464 202.671 219.128 201.992C218.861 201.394 218.466 200.862 217.971 200.433C217.248 199.835 216.378 199.441 215.451 199.291C215.123 199.207 214.783 199.18 214.446 199.21C214.761 199.321 215.083 199.407 215.411 199.47C216.274 199.684 217.074 200.1 217.744 200.684C218.184 201.097 218.532 201.597 218.767 202.153C219.06 202.778 219.191 203.467 219.146 204.156C219.078 204.915 218.83 205.647 218.422 206.291C218.006 206.993 217.422 207.581 216.724 208.003C215.338 208.83 213.736 209.221 212.125 209.127C211.434 209.094 210.759 208.91 210.146 208.589C209.618 208.297 209.161 207.893 208.806 207.405C208.292 206.683 207.996 205.829 207.954 204.944C207.919 204.303 207.995 203.949 207.95 203.943Z" fill="#62B257"/>
<path d="M199.861 221.959C203.373 222.625 208.483 219.179 206.656 214.733C206.334 213.926 205.78 213.232 205.064 212.738L204.997 212.698C204.241 212.232 203.396 211.93 202.517 211.81C201.637 211.69 200.742 211.756 199.889 212.003C199.438 212.117 198.999 212.279 198.582 212.487C197.579 212.957 196.755 213.74 196.234 214.718C196.136 214.914 196.048 215.116 195.971 215.322C195.943 215.401 195.925 215.474 195.897 215.552C195.85 215.72 195.804 215.877 195.764 216.04L195.711 216.27C195.282 218.834 196.707 221.368 199.861 221.959Z" fill="#5DC662"/>
<path d="M201.606 224.561C204.793 224.371 208.716 221.939 208.172 218.648C207.818 216.5 206.813 213.273 205.075 212.765C205.791 213.259 206.345 213.953 206.667 214.761C208.483 219.207 203.373 222.653 199.871 222.014C196.718 221.429 195.293 218.89 195.733 216.365C194.408 220.766 197.688 224.774 201.606 224.561Z" fill="#5DC662"/>
<path opacity="0.4" d="M202.029 213.603C201.474 212.717 199.787 212.924 198.949 213.822C198.45 214.38 197.899 215.904 198.983 216.07C199.768 216.205 200.113 215.117 200.678 214.784C201.09 214.54 202.309 214.493 202.112 213.778C202.092 213.717 202.064 213.658 202.029 213.603Z" fill="#EEFFFF"/>
<path opacity="0.4" d="M197.73 216.767C198.752 216.932 198.016 218.455 197.224 217.623C197.17 217.536 197.141 217.436 197.14 217.333C197.14 217.231 197.167 217.13 197.219 217.042C197.271 216.954 197.346 216.882 197.436 216.834C197.526 216.785 197.628 216.762 197.73 216.767Z" fill="#EEFFFF"/>
<path d="M195.682 216.493C195.542 216.805 195.48 217.146 195.5 217.487C195.466 218.431 195.728 219.362 196.25 220.15C196.619 220.694 197.105 221.149 197.673 221.481C198.33 221.851 199.062 222.069 199.815 222.12C201.514 222.242 203.209 221.838 204.672 220.965C205.439 220.501 206.08 219.855 206.54 219.085C206.986 218.377 207.254 217.571 207.321 216.737C207.36 215.98 207.203 215.226 206.866 214.548C206.597 213.95 206.2 213.417 205.703 212.989C204.977 212.394 204.109 212 203.183 211.846C202.855 211.763 202.515 211.735 202.178 211.766C202.492 211.88 202.814 211.967 203.142 212.026C204.006 212.237 204.806 212.651 205.476 213.234C205.918 213.646 206.269 214.147 206.505 214.703C206.798 215.328 206.928 216.017 206.883 216.706C206.816 217.465 206.568 218.197 206.16 218.841C205.744 219.545 205.16 220.135 204.461 220.559C203.072 221.374 201.47 221.753 199.863 221.648C199.168 221.634 198.485 221.468 197.861 221.162C197.336 220.868 196.881 220.464 196.527 219.978C196.016 219.244 195.732 218.376 195.708 217.482C195.645 216.853 195.715 216.499 195.682 216.493Z" fill="#62B257"/>
</g>
<path d="M139.47 171.726C141.448 173.745 142.899 176.283 143.42 178.816C143.938 181.331 143.539 183.805 141.879 185.846C135.388 193.826 125.348 194.163 115.897 190.082C104.182 185.024 99.1055 169.995 103.818 159.082C105.658 154.819 108.079 151.516 111.234 149.352C114.377 147.196 118.336 146.111 123.373 146.431C126.253 146.614 128.381 148.048 129.777 150.188C131.191 152.354 131.863 155.266 131.696 158.324C131.497 161.962 133.057 165.178 139.47 171.726Z" fill="white" stroke="black" stroke-width="2"/>
<defs>
<filter id="filter0_d_562_15517" x="127.124" y="170.956" width="51.5647" height="60.0957" filterUnits="userSpaceOnUse" color-interpolation-filters="sRGB">
<feFlood flood-opacity="0" result="BackgroundImageFix"/>
<feColorMatrix in="SourceAlpha" type="matrix" values="0 0 0 0 0 0 0 0 0 0 0 0 0 0 0 0 0 0 127 0" result="hardAlpha"/>
<feOffset dy="4"/>
<feGaussianBlur stdDeviation="2"/>
<feComposite in2="hardAlpha" operator="out"/>
<feColorMatrix type="matrix" values="0 0 0 0 0 0 0 0 0 0 0 0 0 0 0 0 0 0 0.15 0"/>
<feBlend mode="normal" in2="BackgroundImageFix" result="effect1_dropShadow_562_15517"/>
<feBlend mode="normal" in="SourceGraphic" in2="effect1_dropShadow_562_15517" result="shape"/>
</filter>
<filter id="filter1_d_562_15517" x="67.6299" y="171.821" width="28.4341" height="30.9971" filterUnits="userSpaceOnUse" color-interpolation-filters="sRGB">
<feFlood flood-opacity="0" result="BackgroundImageFix"/>
<feColorMatrix in="SourceAlpha" type="matrix" values="0 0 0 0 0 0 0 0 0 0 0 0 0 0 0 0 0 0 127 0" result="hardAlpha"/>
<feOffset dy="2"/>
<feGaussianBlur stdDeviation="2"/>
<feColorMatrix type="matrix" values="0 0 0 0 0 0 0 0 0 0 0 0 0 0 0 0 0 0 0.15 0"/>
<feBlend mode="normal" in2="BackgroundImageFix" result="effect1_dropShadow_562_15517"/>
<feBlend mode="normal" in="SourceGraphic" in2="effect1_dropShadow_562_15517" result="shape"/>
</filter>
<filter id="filter2_d_562_15517" x="203.901" y="156.216" width="37.4331" height="40.5166" filterUnits="userSpaceOnUse" color-interpolation-filters="sRGB">
<feFlood flood-opacity="0" result="BackgroundImageFix"/>
<feColorMatrix in="SourceAlpha" type="matrix" values="0 0 0 0 0 0 0 0 0 0 0 0 0 0 0 0 0 0 127 0" result="hardAlpha"/>
<feOffset dy="2"/>
<feGaussianBlur stdDeviation="2"/>
<feComposite in2="hardAlpha" operator="out"/>
<feColorMatrix type="matrix" values="0 0 0 0 0 0 0 0 0 0 0 0 0 0 0 0 0 0 0.15 0"/>
<feBlend mode="normal" in2="BackgroundImageFix" result="effect1_dropShadow_562_15517"/>
<feBlend mode="normal" in="SourceGraphic" in2="effect1_dropShadow_562_15517" result="shape"/>
</filter>
<filter id="filter3_d_562_15517" x="82.7288" y="205" width="48" height="51" filterUnits="userSpaceOnUse" color-interpolation-filters="sRGB">
<feFlood flood-opacity="0" result="BackgroundImageFix"/>
<feColorMatrix in="SourceAlpha" type="matrix" values="0 0 0 0 0 0 0 0 0 0 0 0 0 0 0 0 0 0 127 0" result="hardAlpha"/>
<feOffset dy="2"/>
<feGaussianBlur stdDeviation="2"/>
<feColorMatrix type="matrix" values="0 0 0 0 0 0 0 0 0 0 0 0 0 0 0 0 0 0 0.15 0"/>
<feBlend mode="normal" in2="BackgroundImageFix" result="effect1_dropShadow_562_15517"/>
<feBlend mode="normal" in="SourceGraphic" in2="effect1_dropShadow_562_15517" result="shape"/>
</filter>
<filter id="filter4_d_562_15517" x="184.039" y="195.664" width="48.8027" height="52.6377" filterUnits="userSpaceOnUse" color-interpolation-filters="sRGB">
<feFlood flood-opacity="0" result="BackgroundImageFix"/>
<feColorMatrix in="SourceAlpha" type="matrix" values="0 0 0 0 0 0 0 0 0 0 0 0 0 0 0 0 0 0 127 0" result="hardAlpha"/>
<feOffset dy="2"/>
<feGaussianBlur stdDeviation="2"/>
<feColorMatrix type="matrix" values="0 0 0 0 0 0 0 0 0 0 0 0 0 0 0 0 0 0 0.15 0"/>
<feBlend mode="normal" in2="BackgroundImageFix" result="effect1_dropShadow_562_15517"/>
<feBlend mode="normal" in="SourceGraphic" in2="effect1_dropShadow_562_15517" result="shape"/>
</filter>
<clipPath id="clip0_562_15517">
<rect width="17.4533" height="20.5333" fill="white" transform="translate(71.6299 176.535) rotate(-8.94628)"/>
</clipPath>
<clipPath id="clip1_562_15517">
<rect width="40" height="43" fill="white" transform="translate(86.7288 207)"/>
</clipPath>
</defs>
</svg>
