<svg width="242" height="242" viewBox="0 0 242 242" fill="none" xmlns="http://www.w3.org/2000/svg">
<rect x="0.161076" y="0.161076" width="241.613" height="241.613" rx="120.807" fill="#2558DC"/>
<rect x="0.161076" y="0.161076" width="241.613" height="241.613" rx="120.807" stroke="black" stroke-width="0.322151"/>
<path d="M171.557 134.046C184.871 140.668 198.477 128.386 200.356 113.635C201.246 106.649 201.338 99.4027 200.539 92.0255C199.164 79.3394 189.598 69.2814 177.291 65.9092C159.464 61.0244 140.659 59.3516 121.478 61.4305C102.278 63.5115 84.2499 69.184 67.8704 77.7895C56.5846 83.7188 49.4055 95.5827 50.7792 108.257C51.4817 114.739 52.835 120.974 54.7579 126.891C59.7983 142.401 77.1292 153.139 89.8341 142.913L111.27 125.661C121.533 117.4 135.124 115.926 146.92 121.793L171.557 134.046Z" fill="white"/>
<path d="M140.212 145.499C132.2 147.46 123.739 146.264 116.585 142.158C115.378 141.465 113.838 141.882 113.145 143.089C112.453 144.296 112.87 145.836 114.077 146.528C122.354 151.278 132.141 152.662 141.41 150.393C142.762 150.063 143.589 148.699 143.259 147.347C142.928 145.995 141.564 145.168 140.212 145.499Z" fill="white"/>
<path fill-rule="evenodd" clip-rule="evenodd" d="M194.859 137.839C193.167 139.143 191.329 140.266 189.381 141.156C177.987 168.223 148.045 185.655 121.394 188.47C85.8145 192.228 39.06 171.737 34.412 127.732C31.1702 97.0402 47.3743 77.7596 71.9277 67.3762C87.0595 60.4213 103.413 55.7896 120.665 53.9198C140.814 51.736 160.572 53.4945 179.289 58.6231C194.215 62.7132 206.302 75.0727 208.051 91.2119C208.914 99.1788 208.816 107.019 207.852 114.59C206.672 123.848 201.836 132.46 194.859 137.839ZM200.19 114.761C199.243 120.365 196.617 125.543 192.989 129.371C187.397 135.271 179.426 137.961 171.557 134.047L146.921 121.793C135.125 115.926 121.534 117.401 111.27 125.662L89.835 142.914C77.1301 153.139 59.7992 142.402 54.7587 126.892C52.8358 120.975 51.4825 114.739 50.78 108.258C49.4063 95.5832 56.5855 83.7193 67.8712 77.79C84.2508 69.1844 102.279 63.512 121.479 61.431C131.317 60.3647 141.057 60.2854 150.617 61.1204C159.694 61.9132 168.609 63.5304 177.292 65.9097C189.599 69.2819 199.165 79.3399 200.54 92.026C201.339 99.4032 201.247 106.65 200.357 113.635C200.309 114.012 200.253 114.388 200.19 114.761ZM116.585 142.158C123.74 146.264 132.2 147.46 140.213 145.499C141.565 145.168 142.929 145.996 143.259 147.348C143.59 148.699 142.763 150.063 141.411 150.394C132.142 152.663 122.354 151.279 114.077 146.529C112.87 145.836 112.454 144.296 113.146 143.089C113.839 141.882 115.379 141.466 116.585 142.158Z" fill="black"/>
</svg>
